<?xml version="1.0" encoding="UTF-8"?>
<!DOCTYPE svg PUBLIC "-//W3C//DTD SVG 1.1//EN" "http://www.w3.org/Graphics/SVG/1.1/DTD/svg11.dtd">
<!-- Creator: CorelDRAW (Versão de avaliação) -->
<svg xmlns="http://www.w3.org/2000/svg" xml:space="preserve" width="173.625mm" height="156.07mm" version="1.1" style="shape-rendering:geometricPrecision; text-rendering:geometricPrecision; image-rendering:optimizeQuality; fill-rule:evenodd; clip-rule:evenodd"
viewBox="0 0 17342.7 15589.18"
 xmlns:xlink="http://www.w3.org/1999/xlink"
 xmlns:xodm="http://www.corel.com/coreldraw/odm/2003">
 <defs>
  <style type="text/css">
   <![CDATA[
    .fil5 {fill:none;fill-rule:nonzero}
    .fil6 {fill:black}
    .fil9 {fill:white;fill-rule:nonzero}
    .fil10 {fill:black;fill-rule:nonzero}
    .fil2 {fill:#00963F;fill-rule:nonzero}
    .fil0 {fill:#009FE3;fill-rule:nonzero}
    .fil7 {fill:#2C24A3;fill-rule:nonzero}
    .fil8 {fill:#33001A;fill-rule:nonzero}
    .fil1 {fill:#94C120;fill-rule:nonzero}
    .fil4 {fill:#E40613;fill-rule:nonzero}
    .fil3 {fill:#F7A600;fill-rule:nonzero}
   ]]>
  </style>
 </defs>
 <g id="Camada_x0020_1">
  <metadata id="CorelCorpID_0Corel-Layer"/>
  <rect class="fil0" x="13242.48" y="7650.15" width="3220.65" height="3220.65" pointer-events="all"/>
  <rect class="fil1" x="13242.48" y="3825.08" width="3220.65" height="3220.65" pointer-events="all"/>
  <rect class="fil2" x="13242.48" y="0.01" width="3220.65" height="3220.65" pointer-events="all"/>
  <rect class="fil3" x="8911.64" y="7650.15" width="3220.65" height="3220.65" pointer-events="all"/>
  <rect class="fil0" x="8911.64" y="3825.08" width="3220.65" height="3220.65" pointer-events="all"/>
  <rect class="fil1" x="8911.64" y="0.01" width="3220.65" height="3220.65" pointer-events="all"/>
  <rect class="fil4" x="4606.4" y="7650.15" width="3220.65" height="3220.65" pointer-events="all"/>
  <rect class="fil3" x="4606.4" y="3825.08" width="3220.65" height="3220.65" pointer-events="all"/>
  <rect class="fil0" x="4606.4" y="0.01" width="3220.65" height="3220.65" pointer-events="all"/>
  <rect class="fil5" x="2735.7" y="1640.92" width="1537.69" height="693.29" pointer-events="all"/>
  <g id="_2823338344448">
   <path class="fil6" d="M3501.84 3028.34c-116.53,0 -124.88,-89.79 -124.88,-166.5 0,-173.93 244.56,-173.27 244.56,5.2 0,78.98 -32.52,161.3 -119.68,161.3zm-182.11 -150.89c0,104.34 58.03,192.52 161.31,192.52 61.68,0 104.96,-6.14 149.45,-58.68 78.08,-92.2 58.38,-321.16 -118.23,-321.16 -66.17,0 -100.86,4.17 -147,55.92 -24.61,27.61 -45.52,81.37 -45.52,131.41z"/>
   <path class="fil6" d="M3501.84 973.03c1.58,18.9 38.38,109.37 46.84,145.69l-104.07 0c1.77,-21.28 16.22,-52.35 24.02,-74.84 9.42,-27.19 18.21,-59.85 33.21,-70.85zm-166.5 296.59l52.03 0 36.43 -109.27 145.68 0c1.82,21.82 27.59,92.56 36.44,109.27l52.02 0c-7.71,-33.14 -20.72,-62.11 -31.88,-93 -10.96,-30.34 -21.44,-59.7 -32.47,-92.4 -6.35,-18.86 -10.6,-26.61 -16.99,-45.44 -6.11,-17.96 -9.29,-29.56 -15.99,-46.46 -39.38,-99.53 -13.39,-86.93 -79.57,-86.93 -18.62,0 -27.37,47.1 -41.62,83.24l-86.24 231.17c-6.24,16.24 -14.54,35.68 -17.83,49.82z"/>
   <polygon class="fil6" points="3350.95,2154.18 3470.62,2154.18 3470.62,2471.59 3522.65,2471.59 3522.65,2154.18 3647.53,2154.18 3647.53,2112.57 3350.95,2112.57 "/>
   <polygon class="fil6" points="3392.57,1868.01 3626.73,1868.01 3626.73,1826.37 3444.6,1826.37 3444.6,1508.97 3392.57,1508.97 "/>
  </g>
  <rect class="fil5" x="2735.7" y="5454.55" width="1537.69" height="693.29" pointer-events="all"/>
  <g id="_2823338345744">
   <path class="fil6" d="M3324.93 4797.49l46.84 0 0 -286.18 98.86 286.18 52.03 0 96.55 -286.96 2.32 286.96 46.83 0 0 -364.23 -72.84 0c-3.82,45.73 -89.84,250.56 -93.67,296.58 -14.99,-10.99 -18.71,-37.99 -29.26,-69.6 -9.1,-27.34 -15.62,-46.79 -24.73,-74.13 -16.26,-48.76 -39.06,-105.55 -50.07,-152.86l-72.85 0 0 364.23z"/>
   <path class="fil6" d="M3501.84 7159.8c-116.53,0 -124.88,-89.79 -124.88,-166.51 0,-173.92 244.56,-173.27 244.56,5.2 0,39.31 -11.89,87.58 -28.08,112.4 -20,30.63 -53.25,48.9 -91.61,48.9zm-182.11 -150.9c0,104.35 58.03,192.52 161.31,192.52 61.68,0 104.96,-6.14 149.45,-58.68 78.08,-92.2 58.38,-321.16 -118.23,-321.16 -66.17,0 -100.86,4.18 -147,55.93 -24.61,27.6 -45.52,81.36 -45.52,131.4z"/>
   <path class="fil6" d="M3491.44 5957.82l-83.25 0 0 -275.77c121.35,0 192.52,-11.82 192.52,150.9 0,68.61 -36.83,124.88 -109.27,124.88zm-135.29 41.63c101.21,0 208.01,18.18 258.16,-48.82 69.09,-92.28 54.42,-310.21 -102.07,-310.21l-156.09 0 0 359.03z"/>
   <polygon class="fil6" points="3371.77,5401.07 3642.34,5401.07 3642.34,5359.45 3423.8,5359.45 3423.8,5234.57 3621.52,5234.57 3621.52,5192.94 3423.8,5192.94 3423.8,5083.66 3637.13,5083.66 3637.13,5036.83 3371.77,5036.83 "/>
   <polygon class="fil6" points="3475.83,6587.43 3527.87,6587.43 3527.87,6223.2 3475.83,6223.2 "/>
  </g>
  <rect class="fil5" x="2735.7" y="9499.2" width="1537.69" height="693.29" pointer-events="all"/>
  <g id="_2823338347040">
   <path class="fil6" d="M3512.25 8788.44l-93.65 0 0 -124.88c136.37,0 171.7,-16.38 171.7,72.85 0,38.68 -38.53,52.03 -78.05,52.03zm-10.41 -166.51l-83.24 0 0 -109.27c96.77,0 156.1,-16.59 156.1,57.24 0,39.32 -32.92,52.02 -72.86,52.02zm-135.28 208.14l171.7 0c114.18,0 150.54,-167.16 41.62,-192.52l14.77 -11.26c63.54,-46.49 30.2,-155.25 -56.4,-155.25l-171.7 0 0 359.03z"/>
   <path class="fil6" d="M3501.84 11197.58c-116.53,0 -124.88,-89.79 -124.88,-166.51 0,-173.92 244.56,-173.27 244.56,5.2 0,39.31 -11.89,87.59 -28.08,112.4 -20,30.63 -53.25,48.9 -91.61,48.9zm-182.11 -150.9c0,104.35 58.03,192.52 161.31,192.52 61.68,0 104.96,-6.14 149.45,-58.68 78.08,-92.2 58.38,-321.16 -118.23,-321.16 -66.17,0 -100.86,4.18 -147,55.93 -24.61,27.6 -45.52,81.36 -45.52,131.4z"/>
   <path class="fil6" d="M3465.42 10437.89c-27.34,51.67 -97.53,135.64 -124.88,187.33l62.44 0c10.72,-20.26 86.48,-136.61 98.86,-145.69 3.82,14.27 32.92,57.29 42.66,71.82 11.92,17.76 40.9,55.54 45.8,73.88l62.45 0c-8.99,-33.64 -121.49,-171.37 -119.68,-187.33 0.76,-6.61 108.14,-153.15 114.47,-176.91l-57.23 0c-29.88,44.62 -58.57,90.67 -88.46,135.29 -13.45,-9.86 -32.6,-46.42 -44.73,-64.54 -17.67,-26.37 -29.08,-43.08 -43.72,-70.75l-67.64 0 59.32 86.36c21.28,31.92 39.98,60.13 60.35,90.55z"/>
   <path class="fil6" d="M3501.84 9142.26c1.58,18.91 38.38,109.37 46.84,145.69l-104.07 0c1.77,-21.26 16.22,-52.35 24.02,-74.84 9.42,-27.18 18.21,-59.85 33.21,-70.85zm-166.5 296.59l52.03 0 36.43 -109.27 145.68 0c1.82,21.83 27.59,92.57 36.44,109.27l52.02 0 -122.16 -346.13c-9.76,-21.27 1.03,-18.1 -54.75,-18.1 -18.62,0 -27.37,47.11 -41.62,83.26l-86.24 231.16c-6.24,16.23 -14.54,35.68 -17.83,49.81z"/>
   <polygon class="fil6" points="3475.83,10042.44 3527.87,10042.44 3527.87,9678.21 3475.83,9678.21 "/>
  </g>
  <rect class="fil7" x="3427.54" y="14352.66" width="13300.12" height="1236.52" pointer-events="all"/>
  <font style="font-size: 36px;">
   <span>
    DESEMPENHO   </span>
  </font>
  <rect class="fil7" transform="matrix(2.08577E-14 0.787544 -0.787544 2.08577E-14 1370.97 508.267)" width="15231.07" height="1740.82" pointer-events="all"/>
  <font style="font-size: 36px;">
   POTENCIAL  </font>
  <rect class="fil8" x="1710.64" y="13659.37" width="15632.05" height="231.03" pointer-events="all"/>
  <rect class="fil8" transform="matrix(2.08577E-14 0.787544 -0.787544 2.08577E-14 2479.49 0.0014666)" width="17901.89" height="325.33" pointer-events="all"/>
  <polygon class="fil5" points="13699.54,12757.94 16005.86,12757.94 16005.86,12064.64 13699.54,12064.64 " pointer-events="all"/>
  <span style="font-size: 24px;">
   Acima do Esperado  </span>
  <polygon class="fil5" points="9753.13,12757.94 11290.81,12757.94 11290.81,12064.64 9753.13,12064.64 " pointer-events="all"/>
  <span style="font-size: 24px;">
   Esperado  </span>
  <rect class="fil5" x="4460.5" y="12064.65" width="3587.8" height="693.29" pointer-events="all"/>
  <font style="font-size: 24px;">
   Abaixo do Esperado  </font>
  <path class="fil9" d="M584.08 8404.13c-29.27,0 -50.11,7.38 -62.55,22.14 -12.44,14.89 -18.65,35.62 -18.65,62.17l0 105.29 165.51 0 0 -105.29c0,-26.55 -6.74,-47.28 -20.21,-62.17 -13.46,-14.76 -34.84,-22.14 -64.11,-22.14zm-0.39 -115.78c66.05,0 112.8,16.32 140.13,49.08 27.33,32.64 40.92,79.39 40.92,140l0 116.3 201.25 0 0 115.78 -559.46 0 0 -239.72c0,-55.3 14.37,-99.34 43.25,-132.1 28.88,-32.89 73.44,-49.34 133.91,-49.34zm299.16 -341.63c0,-46.62 -17.09,-83.53 -51.28,-110.85 -34.32,-27.33 -83.02,-40.92 -146.08,-40.92 -62.94,0 -111.5,13.59 -145.82,40.92 -34.32,27.32 -51.54,64.24 -51.54,110.85 0,46.5 17.09,83.53 51.28,111.24 34.32,27.72 83.02,41.57 146.08,41.57 63.07,0 111.76,-13.85 146.08,-41.57 34.19,-27.71 51.28,-64.75 51.28,-111.24zm-197.36 -267.55c100.5,0 177.43,28.23 230.78,84.56 43.52,42.35 65.28,103.34 65.28,183.25 0,80.04 -21.76,141.03 -65.28,183.38 -53.35,56.6 -130.28,84.95 -230.78,84.95 -102.43,0 -179.37,-28.36 -230.78,-84.95 -43.51,-42.35 -65.28,-103.34 -65.28,-183.38 0,-79.91 21.77,-140.9 65.28,-183.25 51.41,-56.34 128.34,-84.56 230.78,-84.56zm-278.95 -496.39l98.68 0 0 167.84 460.78 0 0 117.33 -460.78 0 0 167.85 -98.68 0 0 -453.01zm98.68 -481.5l0 295.91 119.66 0 0 -271.7 97.13 0 0 271.7 143.76 0 0 -309.65 100.24 0 0 423.88 -559.46 0 0 -410.14 98.68 0zm-98.68 -102.7l0 -121.73 389.8 -224.04 -389.8 0 0 -108.01 559.46 0 0 116.04 -398.22 229.74 398.22 0 0 108.01 -559.46 0zm284.52 -538.61c-97.52,0 -172.76,-25.9 -225.6,-77.57 -45.98,-44.94 -69.03,-102.05 -69.03,-171.46 0,-92.98 30.82,-160.85 92.47,-203.84 34.57,-23.7 69.28,-36.53 104.12,-38.21l0 115.78c-26.81,7.38 -47.02,16.96 -60.74,28.62 -24.21,20.86 -36.39,51.67 -36.39,92.46 0,41.7 17.09,74.46 51.41,98.56 34.19,23.96 82.76,36 145.43,36 62.68,0 109.69,-12.69 140.9,-37.94 31.21,-25.39 46.89,-57.5 46.89,-96.49 0,-40.01 -13.34,-70.58 -40.14,-91.56 -14.38,-11.66 -36.01,-21.24 -64.76,-28.88l0 -115.78c60.87,9.97 110.46,35.48 148.67,76.66 38.21,41.05 57.24,93.76 57.24,158 0,79.52 -25.77,141.94 -77.31,187.4 -51.81,45.45 -122.91,68.24 -213.17,68.24zm274.94 -691.69l0 115.78 -559.46 0 0 -115.78 559.46 0zm-211.35 -261.85l0 -142.98 -220.16 70.45 220.16 72.53zm-348.11 -7.9l0 -132.1 559.46 -197.1 0 126.66 -115 36.78 0 205.4 115 37.95 0 121.73 -559.46 -199.3zm0 -400.04l0 -116.56 459.23 0 0 -279.73 100.24 0 0 396.29 -559.46 0z"/>
  <path class="fil9" d="M7472.03 14788.31l0 366.76 108.4 0c55.56,0 94.15,-27.33 116.04,-81.98 12.05,-30.05 18,-65.66 18,-107.11 0,-57.23 -8.93,-101.14 -26.94,-131.7 -17.87,-30.69 -53.61,-45.98 -107.1,-45.98l-108.4 0zm128.34 -96.35c34.7,0.52 63.72,4.53 86.76,12.18 39.38,12.82 71.23,36.52 95.58,70.97 19.56,27.84 32.89,57.88 40.01,90.26 7.12,32.38 10.62,63.33 10.62,92.73 0,74.34 -15.02,137.27 -44.94,188.94 -40.53,69.54 -103.34,104.38 -188.04,104.38l-241.79 0 0 -559.46 241.79 0zm734.16 98.68l-295.91 0 0 119.66 271.7 0 0 97.13 -271.7 0 0 143.76 309.65 0 0 100.24 -423.88 0 0 -559.46 410.14 0 0 98.68zm188.17 287.5c3.63,25.52 10.75,44.55 21.24,57.24 19.43,22.92 52.58,34.45 99.59,34.45 28.11,0 51.03,-2.98 68.51,-9.07 33.28,-11.66 49.99,-33.28 49.99,-64.88 0,-18.52 -8.16,-32.77 -24.61,-42.87 -16.44,-9.84 -42.34,-18.65 -77.7,-26.29l-60.35 -13.2c-59.44,-13.21 -100.11,-27.59 -122.25,-43 -37.43,-25.77 -56.21,-66.17 -56.21,-121.08 0,-50.12 18.39,-91.7 55.17,-124.85 36.78,-33.15 90.92,-49.73 162.27,-49.73 59.44,0 110.33,15.54 152.3,46.76 42.09,31.2 64.11,76.53 66.17,135.84l-112.67 0c-2.07,-33.54 -17.09,-57.36 -44.94,-71.48 -18.52,-9.33 -41.69,-13.99 -69.28,-13.99 -30.69,0 -55.17,6.09 -73.56,18.13 -18.26,12.18 -27.46,29.15 -27.46,50.77 0,20.08 9.07,34.97 27.07,44.81 11.66,6.47 36.39,14.24 74.21,23.18l97.91 23.17c42.86,10.11 75.11,23.7 96.61,40.67 33.28,26.42 49.99,64.49 49.99,114.35 0,51.28 -19.69,93.76 -59.19,127.56 -39.49,33.8 -95.18,50.76 -167.19,50.76 -73.56,0 -131.45,-16.7 -173.53,-49.98 -42.09,-33.28 -63.21,-79 -63.21,-137.28l111.12 0zm848.38 -287.5l-295.91 0 0 119.66 271.7 0 0 97.13 -271.7 0 0 143.76 309.65 0 0 100.24 -423.88 0 0 -559.46 410.14 0 0 98.68zm475.94 -98.68l167.58 0 0 559.46 -108.01 0 0 -378.42c0,-10.88 0.13,-26.16 0.39,-45.71 0.26,-19.69 0.39,-34.71 0.39,-45.33l-106.46 469.45 -114.22 0 -105.68 -469.45c0,10.62 0.13,25.64 0.39,45.33 0.26,19.55 0.39,34.83 0.39,45.71l0 378.42 -108.01 0 0 -559.46 169.39 0 102.31 439.93 101.53 -439.93zm584.07 177.55c0,-29.27 -7.38,-50.11 -22.14,-62.55 -14.89,-12.44 -35.62,-18.65 -62.17,-18.65l-105.29 0 0 165.51 105.29 0c26.55,0 47.28,-6.74 62.17,-20.21 14.76,-13.46 22.14,-34.84 22.14,-64.11zm115.78 -0.39c0,66.05 -16.32,112.8 -49.08,140.13 -32.64,27.33 -79.39,40.92 -140,40.92l-116.3 0 0 201.25 -115.78 0 0 -559.46 239.72 0c55.3,0 99.34,14.37 132.1,43.25 32.89,28.88 49.34,73.44 49.34,133.91zm508.04 -78.48l-295.91 0 0 119.66 271.7 0 0 97.13 -271.7 0 0 143.76 309.65 0 0 100.24 -423.88 0 0 -559.46 410.14 0 0 98.68zm102.7 -98.68l121.73 0 224.04 389.8 0 -389.8 108.01 0 0 559.46 -116.04 0 -229.74 -398.22 0 398.22 -108.01 0 0 -559.46zm562.7 559.46l0 -559.46 115.78 0 0 213.69 218.35 0 0 -213.69 115.78 0 0 559.46 -115.78 0 0 -249.42 -218.35 0 0 249.42 -115.78 0zm808.77 -83.14c46.62,0 83.53,-17.09 110.85,-51.28 27.33,-34.32 40.92,-83.02 40.92,-146.08 0,-62.94 -13.59,-111.5 -40.92,-145.82 -27.32,-34.32 -64.24,-51.54 -110.85,-51.54 -46.5,0 -83.53,17.09 -111.24,51.28 -27.72,34.32 -41.57,83.02 -41.57,146.08 0,63.07 13.85,111.76 41.57,146.08 27.71,34.19 64.75,51.28 111.24,51.28zm267.55 -197.36c0,100.5 -28.23,177.43 -84.56,230.78 -42.35,43.52 -103.34,65.28 -183.25,65.28 -80.04,0 -141.03,-21.76 -183.38,-65.28 -56.6,-53.35 -84.95,-130.28 -84.95,-230.78 0,-102.43 28.36,-179.37 84.95,-230.78 42.35,-43.51 103.34,-65.28 183.38,-65.28 79.91,0 140.9,21.77 183.25,65.28 56.34,51.41 84.56,128.34 84.56,230.78z"/>
  <path class="fil10" d="M5237.2 12278.04l121.96 -317.92 46.25 0 129.43 317.92 -47.88 0 -36.79 -96.35 -133.87 0 -34.48 96.35 -44.63 0zm91.47 -130.54l108.35 0 -33.15 -88.14c-10,-26.79 -17.54,-48.91 -22.79,-66.37 -4.37,20.72 -10.22,41.07 -17.54,61.2l-34.86 93.31zm270.62 130.54l-36.41 0 0 -317.92 39.08 0 0 113.45c16.5,-20.58 37.52,-30.86 63.13,-30.86 14.13,0 27.6,2.82 40.25,8.51 12.66,5.7 23.01,13.76 31.23,24.05 8.13,10.36 14.57,22.79 19.16,37.38 4.66,14.5 6.96,30.12 6.96,46.69 0,39.38 -9.77,69.86 -29.24,91.33 -19.54,21.54 -42.92,32.26 -70.22,32.26 -27.16,0 -48.47,-11.33 -63.95,-33.89l0 29.01zm-0.44 -116.93c0,27.53 3.78,47.44 11.25,59.72 12.29,20.06 28.86,30.12 49.8,30.12 17.1,0 31.82,-7.39 44.18,-22.19 12.44,-14.8 18.65,-36.86 18.65,-66.16 0,-30.04 -5.92,-52.17 -17.83,-66.45 -11.92,-14.27 -26.35,-21.46 -43.22,-21.46 -17.09,0 -31.82,7.4 -44.18,22.2 -12.44,14.79 -18.65,36.18 -18.65,64.23zm361.95 88.07c-14.5,12.36 -28.49,21.02 -41.88,26.12 -13.39,5.1 -27.75,7.62 -43.14,7.62 -25.31,0 -44.78,-6.14 -58.39,-18.5 -13.61,-12.29 -20.43,-28.05 -20.43,-47.22 0,-11.25 2.6,-21.54 7.7,-30.85 5.17,-9.33 11.92,-16.73 20.2,-22.35 8.37,-5.62 17.69,-9.92 28.13,-12.8 7.69,-2 19.31,-3.93 34.78,-5.85 31.52,-3.7 54.84,-8.21 69.71,-13.39 0.14,-5.32 0.22,-8.73 0.22,-10.14 0,-15.83 -3.71,-27.01 -11.1,-33.52 -10,-8.8 -24.87,-13.17 -44.55,-13.17 -18.43,0 -32.04,3.26 -40.78,9.7 -8.8,6.44 -15.24,17.83 -19.46,34.26l-38.19 -5.32c3.48,-16.36 9.18,-29.61 17.17,-39.66 7.99,-10.07 19.54,-17.76 34.63,-23.24 15.02,-5.39 32.56,-8.14 52.39,-8.14 19.69,0 35.75,2.3 48.11,6.96 12.29,4.66 21.39,10.43 27.16,17.46 5.77,7.03 9.84,15.91 12.21,26.64 1.26,6.66 1.93,18.65 1.93,35.9l0 51.8c0,36.19 0.82,59.05 2.45,68.74 1.55,9.7 4.8,18.95 9.54,27.83l-40.84 0c-3.93,-8.21 -6.44,-17.83 -7.55,-28.86zm-3.11 -86.59c-14.21,5.77 -35.52,10.66 -63.94,14.65 -16.13,2.3 -27.53,4.88 -34.19,7.77 -6.66,2.89 -11.77,7.11 -15.39,12.59 -3.63,5.54 -5.47,11.69 -5.47,18.5 0,10.29 3.92,18.95 11.84,25.83 7.92,6.88 19.47,10.36 34.63,10.36 15.02,0 28.42,-3.26 40.18,-9.85 11.7,-6.51 20.36,-15.46 25.83,-26.79 4.22,-8.8 6.29,-21.76 6.29,-38.85l0.22 -14.21zm99.54 -158.06l0 -44.41 39.08 0 0 44.41 -39.08 0zm0 273.51l0 -230.45 39.08 0 0 230.45 -39.08 0zm72.01 0l84.13 -119.36 -77.92 -111.08 48.03 0 36.41 54.4c6.74,10.21 12.07,18.5 15.84,25.01 6.58,-9.25 12.43,-17.61 17.68,-25.09l38.34 -54.32 47.74 0 -78.37 111.08 83.47 119.36 -47.51 0 -47.67 -71.04 -10.88 -17.1 -61.57 88.14 -47.73 0zm233.99 -115.22c0,-42.55 11.84,-74.08 35.59,-94.58 19.77,-17.02 43.96,-25.53 72.46,-25.53 31.59,0 57.49,10.37 77.62,31.08 20.06,20.65 30.13,49.28 30.13,85.77 0,29.6 -4.44,52.84 -13.32,69.78 -8.88,16.95 -21.84,30.12 -38.86,39.51 -16.94,9.4 -35.52,14.06 -55.57,14.06 -32.27,0 -58.31,-10.29 -78.22,-30.93 -19.91,-20.65 -29.83,-50.39 -29.83,-89.17zm39.96 0.07c0,29.46 6.43,51.51 19.31,66.08 12.96,14.65 29.16,21.97 48.77,21.97 19.39,0 35.52,-7.32 48.46,-22.04 12.88,-14.73 19.32,-37.16 19.32,-67.27 0,-28.42 -6.51,-49.95 -19.47,-64.53 -12.95,-14.65 -29.08,-21.98 -48.31,-21.98 -19.62,0 -35.82,7.25 -48.77,21.84 -12.88,14.58 -19.31,36.56 -19.31,65.93zm493.74 115.15l0 -29.23c-14.57,22.71 -36.04,34.11 -64.38,34.11 -18.36,0 -35.23,-5.03 -50.54,-15.17 -15.39,-10.06 -27.31,-24.19 -35.82,-42.25 -8.44,-18.13 -12.66,-38.93 -12.66,-62.46 0,-22.94 3.85,-43.74 11.47,-62.46 7.7,-18.65 19.17,-33 34.49,-42.92 15.24,-9.99 32.41,-14.95 51.28,-14.95 13.91,0 26.27,2.97 37.08,8.81 10.8,5.84 19.61,13.54 26.42,22.94l0 -114.34 39.07 0 0 317.92 -36.41 0zm-123.43 -114.93c0,29.46 6.21,51.43 18.72,66.01 12.44,14.57 27.16,21.83 44.11,21.83 17.09,0 31.59,-6.95 43.58,-20.87 11.92,-13.91 17.91,-35.15 17.91,-63.72 0,-31.37 -6.06,-54.46 -18.28,-69.19 -12.14,-14.72 -27.16,-22.05 -44.99,-22.05 -17.39,0 -31.89,7.03 -43.59,21.17 -11.62,14.13 -17.46,36.41 -17.46,66.82zm206.98 -0.29c0,-42.55 11.84,-74.08 35.59,-94.58 19.77,-17.02 43.96,-25.53 72.46,-25.53 31.59,0 57.49,10.37 77.62,31.08 20.06,20.65 30.13,49.28 30.13,85.77 0,29.6 -4.44,52.84 -13.32,69.78 -8.88,16.95 -21.84,30.12 -38.86,39.51 -16.94,9.4 -35.52,14.06 -55.57,14.06 -32.27,0 -58.31,-10.29 -78.22,-30.93 -19.91,-20.65 -29.83,-50.39 -29.83,-89.17zm39.96 0.07c0,29.46 6.43,51.51 19.31,66.08 12.96,14.65 29.16,21.97 48.77,21.97 19.39,0 35.52,-7.32 48.46,-22.04 12.88,-14.73 19.32,-37.16 19.32,-67.27 0,-28.42 -6.51,-49.95 -19.47,-64.53 -12.95,-14.65 -29.08,-21.98 -48.31,-21.98 -19.62,0 -35.82,7.25 -48.77,21.84 -12.88,14.58 -19.31,36.56 -19.31,65.93zm-1747.49 611.18l0 -317.92 229.55 0 0 37.3 -187.37 0 0 97.69 175.38 0 0 37.3 -175.38 0 0 108.34 194.92 0 0 37.3 -237.1 0zm274.84 -68.82l38.63 -6.21c2.15,15.46 8.22,27.3 18.13,35.59 9.92,8.22 23.83,12.36 41.59,12.36 17.98,0 31.3,-3.63 40.03,-10.95 8.66,-7.25 13.03,-15.84 13.03,-25.68 0,-8.8 -3.93,-15.76 -11.69,-20.8 -5.48,-3.48 -18.8,-7.84 -39.96,-13.24 -28.57,-7.17 -48.32,-13.39 -59.42,-18.65 -11.03,-5.32 -19.39,-12.58 -25.09,-21.9 -5.69,-9.25 -8.58,-19.54 -8.58,-30.78 0,-10.29 2.37,-19.76 7.03,-28.49 4.73,-8.73 11.1,-15.98 19.16,-21.76 6.07,-4.44 14.36,-8.22 24.79,-11.33 10.51,-3.11 21.69,-4.66 33.67,-4.66 18.06,0 33.89,2.6 47.52,7.85 13.68,5.17 23.75,12.29 30.27,21.17 6.43,8.95 10.95,20.87 13.39,35.81l-38.19 5.33c-1.7,-11.99 -6.73,-21.39 -15.02,-28.12 -8.29,-6.74 -19.98,-10.07 -35.15,-10.07 -17.84,0 -30.63,2.96 -38.26,8.88 -7.63,5.92 -11.48,12.88 -11.48,20.8 0,5.03 1.56,9.62 4.73,13.68 3.19,4.15 8.14,7.63 14.95,10.37 3.93,1.48 15.32,4.8 34.41,9.99 27.53,7.32 46.77,13.39 57.72,18.06 10.95,4.65 19.54,11.54 25.75,20.42 6.29,8.96 9.4,20.06 9.4,33.38 0,12.95 -3.78,25.16 -11.4,36.63 -7.62,11.47 -18.58,20.35 -32.86,26.64 -14.35,6.29 -30.56,9.4 -48.61,9.4 -29.9,0 -52.76,-6.21 -68.45,-18.58 -15.69,-12.43 -25.68,-30.78 -30.05,-55.13zm237.55 157.18l0 -318.81 35.52 0 0 30.28c8.36,-11.7 17.83,-20.51 28.42,-26.35 10.51,-5.84 23.31,-8.81 38.34,-8.81 19.68,0 37,5.03 52.02,15.17 15.02,10.07 26.34,24.35 34.04,42.7 7.62,18.43 11.47,38.56 11.47,60.53 0,23.46 -4.22,44.63 -12.66,63.5 -8.43,18.8 -20.72,33.22 -36.85,43.29 -16.06,9.99 -33,15.02 -50.77,15.02 -13.02,0 -24.71,-2.74 -35,-8.21 -10.36,-5.48 -18.8,-12.37 -25.45,-20.73l0 112.41 -39.08 0zm35.52 -202.18c0,29.54 5.99,51.36 17.91,65.5 11.99,14.13 26.49,21.24 43.51,21.24 17.32,0 32.12,-7.32 44.4,-21.97 12.37,-14.65 18.51,-37.3 18.51,-68.01 0,-29.3 -6,-51.2 -18.06,-65.78 -12.07,-14.57 -26.42,-21.83 -43.14,-21.83 -16.58,0 -31.23,7.77 -43.96,23.23 -12.81,15.54 -19.17,38.04 -19.17,67.63zm368.61 39.23l40.4 5.32c-6.29,23.46 -18.06,41.74 -35.23,54.69 -17.16,12.96 -39.07,19.47 -65.78,19.47 -33.59,0 -60.24,-10.36 -79.92,-31.08 -19.69,-20.65 -29.53,-49.72 -29.53,-87.1 0,-38.63 9.91,-68.67 29.82,-89.99 19.91,-21.39 45.74,-32.04 77.48,-32.04 30.71,0 55.8,10.44 75.26,31.38 19.46,20.94 29.23,50.39 29.23,88.36 0,2.29 -0.07,5.77 -0.22,10.36l-171.61 0c1.49,25.23 8.59,44.62 21.47,58.01 12.81,13.39 28.86,20.13 48.03,20.13 14.28,0 26.49,-3.77 36.56,-11.32 10.14,-7.55 18.13,-19.61 24.05,-36.19zm-127.87 -62.61l128.31 0c-1.7,-19.39 -6.65,-33.89 -14.72,-43.58 -12.36,-15.02 -28.49,-22.57 -48.24,-22.57 -17.91,0 -32.93,5.99 -45.15,17.98 -12.14,11.99 -18.87,28.05 -20.2,48.17zm217.19 137.2l0 -230.45 35.08 0 0 35.3c8.96,-16.35 17.24,-27.16 24.86,-32.33 7.62,-5.25 15.99,-7.85 25.09,-7.85 13.17,0 26.57,4.15 40.18,12.37l-13.91 36.04c-9.47,-5.33 -18.95,-7.99 -28.42,-7.99 -8.51,0 -16.13,2.59 -22.86,7.69 -6.73,5.1 -11.55,12.22 -14.43,21.32 -4.37,13.83 -6.51,29.01 -6.51,45.51l0 120.4 -39.08 0zm298.83 -28.86c-14.5,12.36 -28.49,21.02 -41.88,26.12 -13.39,5.1 -27.75,7.62 -43.14,7.62 -25.31,0 -44.78,-6.14 -58.39,-18.5 -13.61,-12.29 -20.43,-28.05 -20.43,-47.22 0,-11.25 2.6,-21.54 7.7,-30.85 5.17,-9.33 11.92,-16.73 20.2,-22.35 8.37,-5.62 17.69,-9.92 28.13,-12.8 7.69,-2 19.31,-3.93 34.78,-5.85 31.52,-3.7 54.84,-8.21 69.71,-13.39 0.14,-5.32 0.22,-8.73 0.22,-10.14 0,-15.83 -3.71,-27.01 -11.1,-33.52 -10,-8.8 -24.87,-13.17 -44.55,-13.17 -18.43,0 -32.04,3.26 -40.78,9.7 -8.8,6.44 -15.24,17.83 -19.46,34.26l-38.19 -5.32c3.48,-16.36 9.18,-29.61 17.17,-39.66 7.99,-10.07 19.54,-17.76 34.63,-23.24 15.02,-5.39 32.56,-8.14 52.39,-8.14 19.69,0 35.75,2.3 48.11,6.96 12.29,4.66 21.39,10.43 27.16,17.46 5.77,7.03 9.84,15.91 12.21,26.64 1.26,6.66 1.93,18.65 1.93,35.9l0 51.8c0,36.19 0.82,59.05 2.45,68.74 1.55,9.7 4.8,18.95 9.54,27.83l-40.84 0c-3.93,-8.21 -6.44,-17.83 -7.55,-28.86zm-3.11 -86.59c-14.21,5.77 -35.52,10.66 -63.94,14.65 -16.13,2.3 -27.53,4.88 -34.19,7.77 -6.66,2.89 -11.77,7.11 -15.39,12.59 -3.63,5.54 -5.47,11.69 -5.47,18.5 0,10.29 3.92,18.95 11.84,25.83 7.92,6.88 19.47,10.36 34.63,10.36 15.02,0 28.42,-3.26 40.18,-9.85 11.7,-6.51 20.36,-15.46 25.83,-26.79 4.22,-8.8 6.29,-21.76 6.29,-38.85l0.22 -14.21zm248.28 115.45l0 -29.23c-14.57,22.71 -36.04,34.11 -64.38,34.11 -18.36,0 -35.23,-5.03 -50.54,-15.17 -15.39,-10.06 -27.31,-24.19 -35.82,-42.25 -8.44,-18.13 -12.66,-38.93 -12.66,-62.46 0,-22.94 3.85,-43.74 11.47,-62.46 7.7,-18.65 19.17,-33 34.49,-42.92 15.24,-9.99 32.41,-14.95 51.28,-14.95 13.91,0 26.27,2.97 37.08,8.81 10.8,5.84 19.61,13.54 26.42,22.94l0 -114.34 39.07 0 0 317.92 -36.41 0zm-123.43 -114.93c0,29.46 6.21,51.43 18.72,66.01 12.44,14.57 27.16,21.83 44.11,21.83 17.09,0 31.59,-6.95 43.58,-20.87 11.92,-13.91 17.91,-35.15 17.91,-63.72 0,-31.37 -6.06,-54.46 -18.28,-69.19 -12.14,-14.72 -27.16,-22.05 -44.99,-22.05 -17.39,0 -31.89,7.03 -43.59,21.17 -11.62,14.13 -17.46,36.41 -17.46,66.82zm206.98 -0.29c0,-42.55 11.84,-74.08 35.59,-94.58 19.77,-17.02 43.96,-25.53 72.46,-25.53 31.59,0 57.49,10.37 77.62,31.08 20.06,20.65 30.13,49.28 30.13,85.77 0,29.6 -4.44,52.84 -13.32,69.78 -8.88,16.95 -21.84,30.12 -38.86,39.51 -16.94,9.4 -35.52,14.06 -55.57,14.06 -32.27,0 -58.31,-10.29 -78.22,-30.93 -19.91,-20.65 -29.83,-50.39 -29.83,-89.17zm39.96 0.07c0,29.46 6.43,51.51 19.31,66.08 12.96,14.65 29.16,21.97 48.77,21.97 19.39,0 35.52,-7.32 48.46,-22.04 12.88,-14.73 19.32,-37.16 19.32,-67.27 0,-28.42 -6.51,-49.95 -19.47,-64.53 -12.95,-14.65 -29.08,-21.98 -48.31,-21.98 -19.62,0 -35.82,7.25 -48.77,21.84 -12.88,14.58 -19.31,36.56 -19.31,65.93z"/>
  <path class="fil10" d="M9597.39 12526.07l0 -317.92 229.55 0 0 37.3 -187.37 0 0 97.69 175.38 0 0 37.3 -175.38 0 0 108.34 194.92 0 0 37.3 -237.1 0zm274.84 -68.82l38.63 -6.21c2.15,15.46 8.22,27.3 18.13,35.59 9.92,8.22 23.83,12.36 41.59,12.36 17.98,0 31.3,-3.63 40.03,-10.95 8.66,-7.25 13.03,-15.84 13.03,-25.68 0,-8.8 -3.93,-15.76 -11.69,-20.8 -5.48,-3.48 -18.8,-7.84 -39.96,-13.24 -28.57,-7.17 -48.32,-13.39 -59.42,-18.65 -11.03,-5.32 -19.39,-12.58 -25.09,-21.9 -5.69,-9.25 -8.58,-19.54 -8.58,-30.78 0,-10.29 2.37,-19.76 7.03,-28.49 4.73,-8.73 11.1,-15.98 19.16,-21.76 6.07,-4.44 14.36,-8.22 24.79,-11.33 10.51,-3.11 21.69,-4.66 33.67,-4.66 18.06,0 33.89,2.6 47.52,7.85 13.68,5.17 23.75,12.29 30.27,21.17 6.43,8.95 10.95,20.87 13.39,35.81l-38.19 5.33c-1.7,-11.99 -6.73,-21.39 -15.02,-28.12 -8.29,-6.74 -19.98,-10.07 -35.15,-10.07 -17.84,0 -30.63,2.96 -38.26,8.88 -7.63,5.92 -11.48,12.88 -11.48,20.8 0,5.03 1.56,9.62 4.73,13.68 3.19,4.15 8.14,7.63 14.95,10.37 3.93,1.48 15.32,4.8 34.41,9.99 27.53,7.32 46.77,13.39 57.72,18.06 10.95,4.65 19.54,11.54 25.75,20.42 6.29,8.96 9.4,20.06 9.4,33.38 0,12.95 -3.78,25.16 -11.4,36.63 -7.62,11.47 -18.58,20.35 -32.86,26.64 -14.35,6.29 -30.56,9.4 -48.61,9.4 -29.9,0 -52.76,-6.21 -68.45,-18.58 -15.69,-12.43 -25.68,-30.78 -30.05,-55.13zm237.55 157.18l0 -318.81 35.52 0 0 30.28c8.36,-11.7 17.83,-20.51 28.42,-26.35 10.51,-5.84 23.31,-8.81 38.34,-8.81 19.68,0 37,5.03 52.02,15.17 15.02,10.07 26.34,24.35 34.04,42.7 7.62,18.43 11.47,38.56 11.47,60.53 0,23.46 -4.22,44.63 -12.66,63.5 -8.43,18.8 -20.72,33.22 -36.85,43.29 -16.06,9.99 -33,15.02 -50.77,15.02 -13.02,0 -24.71,-2.74 -35,-8.21 -10.36,-5.48 -18.8,-12.37 -25.45,-20.73l0 112.41 -39.08 0zm35.52 -202.18c0,29.54 5.99,51.36 17.91,65.5 11.99,14.13 26.49,21.24 43.51,21.24 17.32,0 32.12,-7.32 44.4,-21.97 12.37,-14.65 18.51,-37.3 18.51,-68.01 0,-29.3 -6,-51.2 -18.06,-65.78 -12.07,-14.57 -26.42,-21.83 -43.14,-21.83 -16.58,0 -31.23,7.77 -43.96,23.23 -12.81,15.54 -19.17,38.04 -19.17,67.63zm368.61 39.23l40.4 5.32c-6.29,23.46 -18.06,41.74 -35.23,54.69 -17.16,12.96 -39.07,19.47 -65.78,19.47 -33.59,0 -60.24,-10.36 -79.92,-31.08 -19.69,-20.65 -29.53,-49.72 -29.53,-87.1 0,-38.63 9.91,-68.67 29.82,-89.99 19.91,-21.39 45.74,-32.04 77.48,-32.04 30.71,0 55.8,10.44 75.26,31.38 19.46,20.94 29.23,50.39 29.23,88.36 0,2.29 -0.07,5.77 -0.22,10.36l-171.61 0c1.49,25.23 8.59,44.62 21.47,58.01 12.81,13.39 28.86,20.13 48.03,20.13 14.28,0 26.49,-3.77 36.56,-11.32 10.14,-7.55 18.13,-19.61 24.05,-36.19zm-127.87 -62.61l128.31 0c-1.7,-19.39 -6.65,-33.89 -14.72,-43.58 -12.36,-15.02 -28.49,-22.57 -48.24,-22.57 -17.91,0 -32.93,5.99 -45.15,17.98 -12.14,11.99 -18.87,28.05 -20.2,48.17zm217.19 137.2l0 -230.45 35.08 0 0 35.3c8.96,-16.35 17.24,-27.16 24.86,-32.33 7.62,-5.25 15.99,-7.85 25.09,-7.85 13.17,0 26.57,4.15 40.18,12.37l-13.91 36.04c-9.47,-5.33 -18.95,-7.99 -28.42,-7.99 -8.51,0 -16.13,2.59 -22.86,7.69 -6.73,5.1 -11.55,12.22 -14.43,21.32 -4.37,13.83 -6.51,29.01 -6.51,45.51l0 120.4 -39.08 0zm298.83 -28.86c-14.5,12.36 -28.49,21.02 -41.88,26.12 -13.39,5.1 -27.75,7.62 -43.14,7.62 -25.31,0 -44.78,-6.14 -58.39,-18.5 -13.61,-12.29 -20.43,-28.05 -20.43,-47.22 0,-11.25 2.6,-21.54 7.7,-30.85 5.17,-9.33 11.92,-16.73 20.2,-22.35 8.37,-5.62 17.69,-9.92 28.13,-12.8 7.69,-2 19.31,-3.93 34.78,-5.85 31.52,-3.7 54.84,-8.21 69.71,-13.39 0.14,-5.32 0.22,-8.73 0.22,-10.14 0,-15.83 -3.71,-27.01 -11.1,-33.52 -10,-8.8 -24.87,-13.17 -44.55,-13.17 -18.43,0 -32.04,3.26 -40.78,9.7 -8.8,6.44 -15.24,17.83 -19.46,34.26l-38.19 -5.32c3.48,-16.36 9.18,-29.61 17.17,-39.66 7.99,-10.07 19.54,-17.76 34.63,-23.24 15.02,-5.39 32.56,-8.14 52.39,-8.14 19.69,0 35.75,2.3 48.11,6.96 12.29,4.66 21.39,10.43 27.16,17.46 5.77,7.03 9.84,15.91 12.21,26.64 1.26,6.66 1.93,18.65 1.93,35.9l0 51.8c0,36.19 0.82,59.05 2.45,68.74 1.55,9.7 4.8,18.95 9.54,27.83l-40.84 0c-3.93,-8.21 -6.44,-17.83 -7.55,-28.86zm-3.11 -86.59c-14.21,5.77 -35.52,10.66 -63.94,14.65 -16.13,2.3 -27.53,4.88 -34.19,7.77 -6.66,2.89 -11.77,7.11 -15.39,12.59 -3.63,5.54 -5.47,11.69 -5.47,18.5 0,10.29 3.92,18.95 11.84,25.83 7.92,6.88 19.47,10.36 34.63,10.36 15.02,0 28.42,-3.26 40.18,-9.85 11.7,-6.51 20.36,-15.46 25.83,-26.79 4.22,-8.8 6.29,-21.76 6.29,-38.85l0.22 -14.21zm248.28 115.45l0 -29.23c-14.57,22.71 -36.04,34.11 -64.38,34.11 -18.36,0 -35.23,-5.03 -50.54,-15.17 -15.39,-10.06 -27.31,-24.19 -35.82,-42.25 -8.44,-18.13 -12.66,-38.93 -12.66,-62.46 0,-22.94 3.85,-43.74 11.47,-62.46 7.7,-18.65 19.17,-33 34.49,-42.92 15.24,-9.99 32.41,-14.95 51.28,-14.95 13.91,0 26.27,2.97 37.08,8.81 10.8,5.84 19.61,13.54 26.42,22.94l0 -114.34 39.07 0 0 317.92 -36.41 0zm-123.43 -114.93c0,29.46 6.21,51.43 18.72,66.01 12.44,14.57 27.16,21.83 44.11,21.83 17.09,0 31.59,-6.95 43.58,-20.87 11.92,-13.91 17.91,-35.15 17.91,-63.72 0,-31.37 -6.06,-54.46 -18.28,-69.19 -12.14,-14.72 -27.16,-22.05 -44.99,-22.05 -17.39,0 -31.89,7.03 -43.59,21.17 -11.62,14.13 -17.46,36.41 -17.46,66.82zm206.98 -0.29c0,-42.55 11.84,-74.08 35.59,-94.58 19.77,-17.02 43.96,-25.53 72.46,-25.53 31.59,0 57.49,10.37 77.62,31.08 20.06,20.65 30.13,49.28 30.13,85.77 0,29.6 -4.44,52.84 -13.32,69.78 -8.88,16.95 -21.84,30.12 -38.86,39.51 -16.94,9.4 -35.52,14.06 -55.57,14.06 -32.27,0 -58.31,-10.29 -78.22,-30.93 -19.91,-20.65 -29.83,-50.39 -29.83,-89.17zm39.96 0.07c0,29.46 6.43,51.51 19.31,66.08 12.96,14.65 29.16,21.97 48.77,21.97 19.39,0 35.52,-7.32 48.46,-22.04 12.88,-14.73 19.32,-37.16 19.32,-67.27 0,-28.42 -6.51,-49.95 -19.47,-64.53 -12.95,-14.65 -29.08,-21.98 -48.31,-21.98 -19.62,0 -35.82,7.25 -48.77,21.84 -12.88,14.58 -19.31,36.56 -19.31,65.93z"/>
  <path class="fil10" d="M13910.35 12278.04l121.96 -317.92 46.25 0 129.43 317.92 -47.88 0 -36.79 -96.35 -133.87 0 -34.48 96.35 -44.63 0zm91.47 -130.54l108.35 0 -33.15 -88.14c-10,-26.79 -17.54,-48.91 -22.79,-66.37 -4.37,20.72 -10.22,41.07 -17.54,61.2l-34.86 93.31zm385.18 46.18l38.19 5.33c-4.22,26.27 -14.87,46.77 -32.11,61.64 -17.25,14.87 -38.49,22.27 -63.57,22.27 -31.45,0 -56.77,-10.29 -75.85,-30.85 -19.17,-20.58 -28.72,-50.03 -28.72,-88.36 0,-24.87 4.15,-46.55 12.36,-65.2 8.22,-18.58 20.73,-32.56 37.6,-41.81 16.8,-9.33 35.08,-13.99 54.91,-13.99 24.94,0 45.44,6.29 61.28,18.95 15.9,12.66 26.12,30.63 30.56,53.88l-37.74 5.76c-3.63,-15.46 -9.99,-27.08 -19.24,-34.92 -9.18,-7.77 -20.28,-11.7 -33.3,-11.7 -19.69,0 -35.67,7.03 -48.03,21.09 -12.29,14.14 -18.43,36.34 -18.43,66.82 0,30.93 5.91,53.36 17.76,67.34 11.92,13.99 27.38,21.02 46.4,21.02 15.39,0 28.2,-4.65 38.41,-14.05 10.29,-9.33 16.8,-23.75 19.54,-43.22zm71.49 -189.14l0 -44.41 39.08 0 0 44.41 -39.08 0zm0 273.51l0 -230.45 39.08 0 0 230.45 -39.08 0zm98.65 0l0 -230.45 35.08 0 0 32.56c7.17,-11.25 16.79,-20.35 28.79,-27.16 11.99,-6.88 25.6,-10.29 40.92,-10.29 17.01,0 31,3.56 41.88,10.59 10.88,7.1 18.57,16.94 23.01,29.68 18.35,-26.87 42.1,-40.26 71.41,-40.26 22.94,0 40.63,6.29 52.91,18.95 12.37,12.66 18.58,32.11 18.58,58.38l0 158 -39.08 0 0 -145.04c0,-15.54 -1.33,-26.79 -3.85,-33.67 -2.52,-6.88 -7.1,-12.36 -13.83,-16.57 -6.66,-4.23 -14.51,-6.29 -23.46,-6.29 -16.28,0 -29.75,5.4 -40.47,16.13 -10.74,10.81 -16.06,28.05 -16.06,51.73l0 133.72 -39.08 0 0 -149.56c0,-17.32 -3.19,-30.34 -9.55,-39 -6.36,-8.66 -16.79,-13.03 -31.22,-13.03 -10.96,0 -21.1,2.89 -30.42,8.66 -9.33,5.76 -16.06,14.2 -20.28,25.38 -4.15,11.1 -6.21,27.16 -6.21,48.1l0 119.44 -39.08 0zm520.39 -28.86c-14.5,12.36 -28.49,21.02 -41.88,26.12 -13.39,5.1 -27.75,7.62 -43.14,7.62 -25.31,0 -44.78,-6.14 -58.39,-18.5 -13.61,-12.29 -20.43,-28.05 -20.43,-47.22 0,-11.25 2.6,-21.54 7.7,-30.85 5.17,-9.33 11.92,-16.73 20.2,-22.35 8.37,-5.62 17.69,-9.92 28.13,-12.8 7.69,-2 19.31,-3.93 34.78,-5.85 31.52,-3.7 54.84,-8.21 69.71,-13.39 0.14,-5.32 0.22,-8.73 0.22,-10.14 0,-15.83 -3.71,-27.01 -11.1,-33.52 -10,-8.8 -24.87,-13.17 -44.55,-13.17 -18.43,0 -32.04,3.26 -40.78,9.7 -8.8,6.44 -15.24,17.83 -19.46,34.26l-38.19 -5.32c3.48,-16.36 9.18,-29.61 17.17,-39.66 7.99,-10.07 19.54,-17.76 34.63,-23.24 15.02,-5.39 32.56,-8.14 52.39,-8.14 19.69,0 35.75,2.3 48.11,6.96 12.29,4.66 21.39,10.43 27.16,17.46 5.77,7.03 9.84,15.91 12.21,26.64 1.26,6.66 1.93,18.65 1.93,35.9l0 51.8c0,36.19 0.82,59.05 2.45,68.74 1.55,9.7 4.8,18.95 9.54,27.83l-40.84 0c-3.93,-8.21 -6.44,-17.83 -7.55,-28.86zm-3.11 -86.59c-14.21,5.77 -35.52,10.66 -63.94,14.65 -16.13,2.3 -27.53,4.88 -34.19,7.77 -6.66,2.89 -11.77,7.11 -15.39,12.59 -3.63,5.54 -5.47,11.69 -5.47,18.5 0,10.29 3.92,18.95 11.84,25.83 7.92,6.88 19.47,10.36 34.63,10.36 15.02,0 28.42,-3.26 40.18,-9.85 11.7,-6.51 20.36,-15.46 25.83,-26.79 4.22,-8.8 6.29,-21.76 6.29,-38.85l0.22 -14.21zm371.64 115.45l0 -29.23c-14.57,22.71 -36.04,34.11 -64.38,34.11 -18.36,0 -35.23,-5.03 -50.54,-15.17 -15.39,-10.06 -27.31,-24.19 -35.82,-42.25 -8.44,-18.13 -12.66,-38.93 -12.66,-62.46 0,-22.94 3.85,-43.74 11.47,-62.46 7.7,-18.65 19.17,-33 34.49,-42.92 15.24,-9.99 32.41,-14.95 51.28,-14.95 13.91,0 26.27,2.97 37.08,8.81 10.8,5.84 19.61,13.54 26.42,22.94l0 -114.34 39.07 0 0 317.92 -36.41 0zm-123.43 -114.93c0,29.46 6.21,51.43 18.72,66.01 12.44,14.57 27.16,21.83 44.11,21.83 17.09,0 31.59,-6.95 43.58,-20.87 11.92,-13.91 17.91,-35.15 17.91,-63.72 0,-31.37 -6.06,-54.46 -18.28,-69.19 -12.14,-14.72 -27.16,-22.05 -44.99,-22.05 -17.39,0 -31.89,7.03 -43.59,21.17 -11.62,14.13 -17.46,36.41 -17.46,66.82zm206.98 -0.29c0,-42.55 11.84,-74.08 35.59,-94.58 19.77,-17.02 43.96,-25.53 72.46,-25.53 31.59,0 57.49,10.37 77.62,31.08 20.06,20.65 30.13,49.28 30.13,85.77 0,29.6 -4.44,52.84 -13.32,69.78 -8.88,16.95 -21.84,30.12 -38.86,39.51 -16.94,9.4 -35.52,14.06 -55.57,14.06 -32.27,0 -58.31,-10.29 -78.22,-30.93 -19.91,-20.65 -29.83,-50.39 -29.83,-89.17zm39.96 0.07c0,29.46 6.43,51.51 19.31,66.08 12.96,14.65 29.16,21.97 48.77,21.97 19.39,0 35.52,-7.32 48.46,-22.04 12.88,-14.73 19.32,-37.16 19.32,-67.27 0,-28.42 -6.51,-49.95 -19.47,-64.53 -12.95,-14.65 -29.08,-21.98 -48.31,-21.98 -19.62,0 -35.82,7.25 -48.77,21.84 -12.88,14.58 -19.31,36.56 -19.31,65.93zm-1623.46 611.18l0 -317.92 229.55 0 0 37.3 -187.37 0 0 97.69 175.38 0 0 37.3 -175.38 0 0 108.34 194.92 0 0 37.3 -237.1 0zm274.84 -68.82l38.63 -6.21c2.15,15.46 8.22,27.3 18.13,35.59 9.92,8.22 23.83,12.36 41.59,12.36 17.98,0 31.3,-3.63 40.03,-10.95 8.66,-7.25 13.03,-15.84 13.03,-25.68 0,-8.8 -3.93,-15.76 -11.69,-20.8 -5.48,-3.48 -18.8,-7.84 -39.96,-13.24 -28.57,-7.17 -48.32,-13.39 -59.42,-18.65 -11.03,-5.32 -19.39,-12.58 -25.09,-21.9 -5.69,-9.25 -8.58,-19.54 -8.58,-30.78 0,-10.29 2.37,-19.76 7.03,-28.49 4.73,-8.73 11.1,-15.98 19.16,-21.76 6.07,-4.44 14.36,-8.22 24.79,-11.33 10.51,-3.11 21.69,-4.66 33.67,-4.66 18.06,0 33.89,2.6 47.52,7.85 13.68,5.17 23.75,12.29 30.27,21.17 6.43,8.95 10.95,20.87 13.39,35.81l-38.19 5.33c-1.7,-11.99 -6.73,-21.39 -15.02,-28.12 -8.29,-6.74 -19.98,-10.07 -35.15,-10.07 -17.84,0 -30.63,2.96 -38.26,8.88 -7.63,5.92 -11.48,12.88 -11.48,20.8 0,5.03 1.56,9.62 4.73,13.68 3.19,4.15 8.14,7.63 14.95,10.37 3.93,1.48 15.32,4.8 34.41,9.99 27.53,7.32 46.77,13.39 57.72,18.06 10.95,4.65 19.54,11.54 25.75,20.42 6.29,8.96 9.4,20.06 9.4,33.38 0,12.95 -3.78,25.16 -11.4,36.63 -7.62,11.47 -18.58,20.35 -32.86,26.64 -14.35,6.29 -30.56,9.4 -48.61,9.4 -29.9,0 -52.76,-6.21 -68.45,-18.58 -15.69,-12.43 -25.68,-30.78 -30.05,-55.13zm237.55 157.18l0 -318.81 35.52 0 0 30.28c8.36,-11.7 17.83,-20.51 28.42,-26.35 10.51,-5.84 23.31,-8.81 38.34,-8.81 19.68,0 37,5.03 52.02,15.17 15.02,10.07 26.34,24.35 34.04,42.7 7.62,18.43 11.47,38.56 11.47,60.53 0,23.46 -4.22,44.63 -12.66,63.5 -8.43,18.8 -20.72,33.22 -36.85,43.29 -16.06,9.99 -33,15.02 -50.77,15.02 -13.02,0 -24.71,-2.74 -35,-8.21 -10.36,-5.48 -18.8,-12.37 -25.45,-20.73l0 112.41 -39.08 0zm35.52 -202.18c0,29.54 5.99,51.36 17.91,65.5 11.99,14.13 26.49,21.24 43.51,21.24 17.32,0 32.12,-7.32 44.4,-21.97 12.37,-14.65 18.51,-37.3 18.51,-68.01 0,-29.3 -6,-51.2 -18.06,-65.78 -12.07,-14.57 -26.42,-21.83 -43.14,-21.83 -16.58,0 -31.23,7.77 -43.96,23.23 -12.81,15.54 -19.17,38.04 -19.17,67.63zm368.61 39.23l40.4 5.32c-6.29,23.46 -18.06,41.74 -35.23,54.69 -17.16,12.96 -39.07,19.47 -65.78,19.47 -33.59,0 -60.24,-10.36 -79.92,-31.08 -19.69,-20.65 -29.53,-49.72 -29.53,-87.1 0,-38.63 9.91,-68.67 29.82,-89.99 19.91,-21.39 45.74,-32.04 77.48,-32.04 30.71,0 55.8,10.44 75.26,31.38 19.46,20.94 29.23,50.39 29.23,88.36 0,2.29 -0.07,5.77 -0.22,10.36l-171.61 0c1.49,25.23 8.59,44.62 21.47,58.01 12.81,13.39 28.86,20.13 48.03,20.13 14.28,0 26.49,-3.77 36.56,-11.32 10.14,-7.55 18.13,-19.61 24.05,-36.19zm-127.87 -62.61l128.31 0c-1.7,-19.39 -6.65,-33.89 -14.72,-43.58 -12.36,-15.02 -28.49,-22.57 -48.24,-22.57 -17.91,0 -32.93,5.99 -45.15,17.98 -12.14,11.99 -18.87,28.05 -20.2,48.17zm217.19 137.2l0 -230.45 35.08 0 0 35.3c8.96,-16.35 17.24,-27.16 24.86,-32.33 7.62,-5.25 15.99,-7.85 25.09,-7.85 13.17,0 26.57,4.15 40.18,12.37l-13.91 36.04c-9.47,-5.33 -18.95,-7.99 -28.42,-7.99 -8.51,0 -16.13,2.59 -22.86,7.69 -6.73,5.1 -11.55,12.22 -14.43,21.32 -4.37,13.83 -6.51,29.01 -6.51,45.51l0 120.4 -39.08 0zm298.83 -28.86c-14.5,12.36 -28.49,21.02 -41.88,26.12 -13.39,5.1 -27.75,7.62 -43.14,7.62 -25.31,0 -44.78,-6.14 -58.39,-18.5 -13.61,-12.29 -20.43,-28.05 -20.43,-47.22 0,-11.25 2.6,-21.54 7.7,-30.85 5.17,-9.33 11.92,-16.73 20.2,-22.35 8.37,-5.62 17.69,-9.92 28.13,-12.8 7.69,-2 19.31,-3.93 34.78,-5.85 31.52,-3.7 54.84,-8.21 69.71,-13.39 0.14,-5.32 0.22,-8.73 0.22,-10.14 0,-15.83 -3.71,-27.01 -11.1,-33.52 -10,-8.8 -24.87,-13.17 -44.55,-13.17 -18.43,0 -32.04,3.26 -40.78,9.7 -8.8,6.44 -15.24,17.83 -19.46,34.26l-38.19 -5.32c3.48,-16.36 9.18,-29.61 17.17,-39.66 7.99,-10.07 19.54,-17.76 34.63,-23.24 15.02,-5.39 32.56,-8.14 52.39,-8.14 19.69,0 35.75,2.3 48.11,6.96 12.29,4.66 21.39,10.43 27.16,17.46 5.77,7.03 9.84,15.91 12.21,26.64 1.26,6.66 1.93,18.65 1.93,35.9l0 51.8c0,36.19 0.82,59.05 2.45,68.74 1.55,9.7 4.8,18.95 9.54,27.83l-40.84 0c-3.93,-8.21 -6.44,-17.83 -7.55,-28.86zm-3.11 -86.59c-14.21,5.77 -35.52,10.66 -63.94,14.65 -16.13,2.3 -27.53,4.88 -34.19,7.77 -6.66,2.89 -11.77,7.11 -15.39,12.59 -3.63,5.54 -5.47,11.69 -5.47,18.5 0,10.29 3.92,18.95 11.84,25.83 7.92,6.88 19.47,10.36 34.63,10.36 15.02,0 28.42,-3.26 40.18,-9.85 11.7,-6.51 20.36,-15.46 25.83,-26.79 4.22,-8.8 6.29,-21.76 6.29,-38.85l0.22 -14.21zm248.28 115.45l0 -29.23c-14.57,22.71 -36.04,34.11 -64.38,34.11 -18.36,0 -35.23,-5.03 -50.54,-15.17 -15.39,-10.06 -27.31,-24.19 -35.82,-42.25 -8.44,-18.13 -12.66,-38.93 -12.66,-62.46 0,-22.94 3.85,-43.74 11.47,-62.46 7.7,-18.65 19.17,-33 34.49,-42.92 15.24,-9.99 32.41,-14.95 51.28,-14.95 13.91,0 26.27,2.97 37.08,8.81 10.8,5.84 19.61,13.54 26.42,22.94l0 -114.34 39.07 0 0 317.92 -36.41 0zm-123.43 -114.93c0,29.46 6.21,51.43 18.72,66.01 12.44,14.57 27.16,21.83 44.11,21.83 17.09,0 31.59,-6.95 43.58,-20.87 11.92,-13.91 17.91,-35.15 17.91,-63.72 0,-31.37 -6.06,-54.46 -18.28,-69.19 -12.14,-14.72 -27.16,-22.05 -44.99,-22.05 -17.39,0 -31.89,7.03 -43.59,21.17 -11.62,14.13 -17.46,36.41 -17.46,66.82zm206.98 -0.29c0,-42.55 11.84,-74.08 35.59,-94.58 19.77,-17.02 43.96,-25.53 72.46,-25.53 31.59,0 57.49,10.37 77.62,31.08 20.06,20.65 30.13,49.28 30.13,85.77 0,29.6 -4.44,52.84 -13.32,69.78 -8.88,16.95 -21.84,30.12 -38.86,39.51 -16.94,9.4 -35.52,14.06 -55.57,14.06 -32.27,0 -58.31,-10.29 -78.22,-30.93 -19.91,-20.65 -29.83,-50.39 -29.83,-89.17zm39.96 0.07c0,29.46 6.43,51.51 19.31,66.08 12.96,14.65 29.16,21.97 48.77,21.97 19.39,0 35.52,-7.32 48.46,-22.04 12.88,-14.73 19.32,-37.16 19.32,-67.27 0,-28.42 -6.51,-49.95 -19.47,-64.53 -12.95,-14.65 -29.08,-21.98 -48.31,-21.98 -19.62,0 -35.82,7.25 -48.77,21.84 -12.88,14.58 -19.31,36.56 -19.31,65.93z"/>
  <path class="fil9" d="M4904.44 163.14l-134.2 0 0 54.27 123.22 0 0 44.05 -123.22 0 0 65.19 140.43 0 0 45.46 -192.22 0 0 -253.71 185.99 0 0 44.75zm46.58 -44.75l55.2 0 101.6 176.78 0 -176.78 48.98 0 0 253.71 -52.62 0 -104.19 -180.59 0 180.59 -48.97 0 0 -253.71zm303.45 253.71l-52.5 0 0 -253.71 52.5 0 0 253.71zm220.53 -174.43c-4,-17.32 -13.86,-29.36 -29.43,-36.23 -8.75,-3.83 -18.44,-5.7 -29.13,-5.7 -20.44,0 -37.24,7.7 -50.33,23.08 -13.15,15.38 -19.74,38.53 -19.74,69.42 0,31.12 7.11,53.15 21.39,66.06 14.21,12.93 30.36,19.39 48.5,19.39 17.8,0 32.36,-5.11 43.76,-15.27 11.33,-10.22 18.38,-23.55 21.03,-40.05l-58.91 0 0 -42.28 105.72 0 0 136.01 -34.89 0 -5.46 -31.71c-10.22,11.93 -19.38,20.38 -27.54,25.25 -13.98,8.52 -31.24,12.81 -51.62,12.81 -33.66,0 -61.2,-11.63 -82.64,-34.89 -22.37,-23.31 -33.59,-55.26 -33.59,-95.84 0,-40.99 11.33,-73.83 33.94,-98.55 22.61,-24.73 52.51,-37.12 89.68,-37.12 32.24,0 58.2,8.16 77.76,24.49 19.56,16.32 30.77,36.7 33.65,61.13l-52.15 0zm271.74 -79.28l75.99 0 0 253.71 -48.98 0 0 -171.6c0,-4.93 0.06,-11.87 0.18,-20.74 0.12,-8.93 0.18,-15.74 0.18,-20.56l-48.27 212.9 -51.8 0 -47.93 -212.9c0,4.81 0.06,11.63 0.18,20.56 0.11,8.87 0.17,15.8 0.17,20.74l0 171.6 -48.97 0 0 -253.71 76.81 0 46.4 199.5 46.05 -199.5zm194.1 157.86l64.85 0 -31.95 -99.84 -32.89 99.84zm3.59 -157.86l59.9 0 89.39 253.71 -57.43 0 -16.68 -52.15 -93.14 0 -17.21 52.15 -55.21 0 90.39 -253.71z"/>
  <path class="fil9" d="M9023.67 119.8l181.12 0 0 44.4 -128.62 0 0 58.49 112.76 0 0 43.69 -112.76 0 0 107.13 -52.5 0 0 -253.71zm327.89 216c21.15,0 37.88,-7.75 50.27,-23.25 12.4,-15.56 18.56,-37.65 18.56,-66.24 0,-28.55 -6.16,-50.57 -18.56,-66.13 -12.4,-15.56 -29.13,-23.37 -50.27,-23.37 -21.09,0 -37.88,7.75 -50.45,23.25 -12.57,15.56 -18.85,37.65 -18.85,66.25 0,28.6 6.28,50.68 18.85,66.24 12.58,15.5 29.37,23.25 50.45,23.25zm121.33 -89.5c0,45.57 -12.8,80.46 -38.35,104.65 -19.21,19.74 -46.87,29.61 -83.11,29.61 -36.29,0 -63.96,-9.87 -83.15,-29.61 -25.67,-24.19 -38.53,-59.08 -38.53,-104.65 0,-46.46 12.86,-81.35 38.53,-104.66 19.2,-19.73 46.87,-29.6 83.15,-29.6 36.24,0 63.9,9.87 83.11,29.6 25.55,23.31 38.35,58.2 38.35,104.66zm93.67 -82.82l0 68.36 57.08 0c11.34,0 19.8,-1.41 25.49,-4.17 10.04,-4.81 15.03,-14.33 15.03,-28.61 0,-15.44 -4.87,-25.78 -14.56,-31.12 -5.46,-3 -13.62,-4.46 -24.49,-4.46l-58.55 0zm69.6 -43.69c17.32,0.35 30.65,2.53 39.99,6.51 9.33,4.06 17.26,9.93 23.78,17.74 5.34,6.4 9.63,13.5 12.75,21.27 3.11,7.81 4.69,16.67 4.69,26.66 0,12.04 -3.06,23.84 -9.1,35.47 -6.11,11.63 -16.15,19.86 -30.14,24.67 11.7,4.69 19.98,11.39 24.85,20.09 4.87,8.63 7.34,21.9 7.34,39.69l0 17.09c0,11.63 0.47,19.5 1.41,23.61 1.41,6.57 4.69,11.39 9.86,14.5l0 6.4 -58.66 0c-1.65,-5.63 -2.83,-10.16 -3.53,-13.62 -1.41,-7.11 -2.18,-14.44 -2.29,-21.9l-0.36 -23.67c-0.23,-16.2 -3,-27.01 -8.4,-32.41 -5.34,-5.4 -15.38,-8.11 -30.13,-8.11l-51.68 0 0 99.73 -51.8 0 0 -253.71 121.4 0zm316.32 0l0 44.75 -76.11 0 0 208.96 -53.21 0 0 -208.96 -76.11 0 0 -44.75 205.44 0zm218.35 44.75l-134.2 0 0 54.27 123.22 0 0 44.05 -123.22 0 0 65.19 140.43 0 0 45.46 -192.22 0 0 -253.71 185.99 0 0 44.75zm-1095.72 418.97l0 166.33 49.16 0c25.19,0 42.69,-12.4 52.62,-37.18 5.46,-13.62 8.16,-29.78 8.16,-48.57 0,-25.96 -4.06,-45.87 -12.22,-59.72 -8.1,-13.92 -24.31,-20.86 -48.56,-20.86l-49.16 0zm58.2 -43.69c15.74,0.23 28.9,2.06 39.36,5.52 17.85,5.81 32.29,16.56 43.34,32.18 8.87,12.63 14.91,26.25 18.15,40.93 3.23,14.68 4.81,28.72 4.81,42.05 0,33.7 -6.81,62.25 -20.39,85.68 -18.38,31.53 -46.87,47.34 -85.27,47.34l-109.64 0 0 -253.71 109.64 0zm332.94 44.75l-134.2 0 0 54.27 123.22 0 0 44.05 -123.22 0 0 65.19 140.43 0 0 45.46 -192.22 0 0 -253.71 185.99 0 0 44.75zm85.33 130.38c1.65,11.57 4.87,20.21 9.63,25.96 8.81,10.4 23.85,15.62 45.17,15.62 12.75,0 23.13,-1.35 31.06,-4.12 15.09,-5.28 22.67,-15.09 22.67,-29.42 0,-8.4 -3.71,-14.86 -11.16,-19.45 -7.46,-4.46 -19.21,-8.45 -35.24,-11.92l-27.37 -5.99c-26.96,-5.99 -45.4,-12.51 -55.44,-19.5 -16.98,-11.69 -25.49,-30.02 -25.49,-54.91 0,-22.73 8.34,-41.58 25.01,-56.62 16.68,-15.04 41.23,-22.55 73.6,-22.55 26.95,0 50.03,7.04 69.06,21.2 19.09,14.15 29.08,34.71 30.02,61.61l-51.1 0c-0.94,-15.21 -7.75,-26.02 -20.38,-32.42 -8.4,-4.23 -18.91,-6.34 -31.41,-6.34 -13.92,0 -25.02,2.77 -33.36,8.23 -8.28,5.51 -12.46,13.21 -12.46,23.01 0,9.11 4.12,15.86 12.28,20.33 5.28,2.94 16.5,6.46 33.65,10.51l44.4 10.52c19.44,4.57 34.07,10.75 43.82,18.44 15.09,11.98 22.66,29.25 22.66,51.86 0,23.25 -8.93,42.52 -26.84,57.84 -17.91,15.33 -43.16,23.02 -75.82,23.02 -33.35,0 -59.6,-7.57 -78.69,-22.67 -19.09,-15.09 -28.67,-35.82 -28.67,-62.25l50.39 0zm384.73 -130.38l-134.2 0 0 54.27 123.22 0 0 44.05 -123.22 0 0 65.19 140.43 0 0 45.46 -192.22 0 0 -253.71 185.99 0 0 44.75zm215.83 -44.75l75.99 0 0 253.71 -48.98 0 0 -171.6c0,-4.93 0.06,-11.87 0.18,-20.74 0.12,-8.93 0.18,-15.74 0.18,-20.56l-48.27 212.9 -51.8 0 -47.93 -212.9c0,4.81 0.06,11.63 0.18,20.56 0.11,8.87 0.17,15.8 0.17,20.74l0 171.6 -48.97 0 0 -253.71 76.81 0 46.4 199.5 46.05 -199.5zm264.87 80.52c0,-13.27 -3.35,-22.73 -10.04,-28.37 -6.75,-5.63 -16.15,-8.46 -28.19,-8.46l-47.75 0 0 75.06 47.75 0c12.04,0 21.44,-3.06 28.19,-9.17 6.69,-6.1 10.04,-15.79 10.04,-29.07zm52.51 -0.18c0,29.96 -7.4,51.15 -22.25,63.55 -14.8,12.4 -36.01,18.56 -63.49,18.56l-52.74 0 0 91.27 -52.51 0 0 -253.71 108.72 0c25.07,0 45.04,6.51 59.9,19.62 14.91,13.1 22.37,33.29 22.37,60.72zm230.39 -35.59l-134.2 0 0 54.27 123.22 0 0 44.05 -123.22 0 0 65.19 140.43 0 0 45.46 -192.22 0 0 -253.71 185.99 0 0 44.75zm46.58 -44.75l55.2 0 101.6 176.78 0 -176.78 48.98 0 0 253.71 -52.62 0 -104.19 -180.59 0 180.59 -48.97 0 0 -253.71zm255.18 253.71l0 -253.71 52.51 0 0 96.9 99.02 0 0 -96.9 52.5 0 0 253.71 -52.5 0 0 -113.11 -99.02 0 0 113.11 -52.51 0zm366.77 -37.71c21.15,0 37.88,-7.75 50.27,-23.25 12.4,-15.56 18.56,-37.65 18.56,-66.24 0,-28.55 -6.16,-50.57 -18.56,-66.13 -12.4,-15.56 -29.13,-23.37 -50.27,-23.37 -21.09,0 -37.88,7.75 -50.45,23.25 -12.57,15.56 -18.85,37.65 -18.85,66.25 0,28.6 6.28,50.68 18.85,66.24 12.58,15.5 29.37,23.25 50.45,23.25zm121.33 -89.5c0,45.57 -12.8,80.46 -38.35,104.65 -19.21,19.74 -46.87,29.61 -83.11,29.61 -36.29,0 -63.96,-9.87 -83.15,-29.61 -25.67,-24.19 -38.53,-59.08 -38.53,-104.65 0,-46.46 12.86,-81.35 38.53,-104.66 19.2,-19.73 46.87,-29.6 83.15,-29.6 36.24,0 63.9,9.87 83.11,29.6 25.55,23.31 38.35,58.2 38.35,104.66z"/>
  <path class="fil9" d="M13441.31 277.66l64.85 0 -31.95 -99.84 -32.89 99.84zm3.59 -157.86l59.9 0 89.39 253.71 -57.43 0 -16.68 -52.15 -93.14 0 -17.21 52.15 -55.21 0 90.39 -253.71zm181.42 0l52.86 0 0 208.25 126.86 0 0 45.46 -179.71 0 0 -253.71zm374.28 0l0 44.75 -76.11 0 0 208.96 -53.21 0 0 -208.96 -76.11 0 0 -44.75 205.44 0zm136.72 216c21.15,0 37.88,-7.75 50.27,-23.25 12.4,-15.56 18.56,-37.65 18.56,-66.24 0,-28.55 -6.16,-50.57 -18.56,-66.13 -12.4,-15.56 -29.13,-23.37 -50.27,-23.37 -21.09,0 -37.88,7.75 -50.45,23.25 -12.57,15.56 -18.85,37.65 -18.85,66.25 0,28.6 6.28,50.68 18.85,66.24 12.58,15.5 29.37,23.25 50.45,23.25zm121.33 -89.5c0,45.57 -12.8,80.46 -38.35,104.65 -19.21,19.74 -46.87,29.61 -83.11,29.61 -36.29,0 -63.96,-9.87 -83.15,-29.61 -25.67,-24.19 -38.53,-59.08 -38.53,-104.65 0,-46.46 12.86,-81.35 38.53,-104.66 19.2,-19.73 46.87,-29.6 83.15,-29.6 36.24,0 63.9,9.87 83.11,29.6 25.55,23.31 38.35,58.2 38.35,104.66zm-746.58 374.04c0,-13.27 -3.35,-22.73 -10.04,-28.37 -6.75,-5.63 -16.15,-8.46 -28.19,-8.46l-47.75 0 0 75.06 47.75 0c12.04,0 21.44,-3.06 28.19,-9.17 6.69,-6.1 10.04,-15.79 10.04,-29.07zm52.51 -0.18c0,29.96 -7.4,51.15 -22.25,63.55 -14.8,12.4 -36.01,18.56 -63.49,18.56l-52.74 0 0 91.27 -52.51 0 0 -253.71 108.72 0c25.07,0 45.04,6.51 59.9,19.62 14.91,13.1 22.37,33.29 22.37,60.72zm154.92 135.66c21.15,0 37.88,-7.75 50.27,-23.25 12.4,-15.56 18.56,-37.65 18.56,-66.24 0,-28.55 -6.16,-50.57 -18.56,-66.13 -12.4,-15.56 -29.13,-23.37 -50.27,-23.37 -21.09,0 -37.88,7.75 -50.45,23.25 -12.57,15.56 -18.85,37.65 -18.85,66.25 0,28.6 6.28,50.68 18.85,66.24 12.58,15.5 29.37,23.25 50.45,23.25zm121.33 -89.5c0,45.57 -12.8,80.46 -38.35,104.65 -19.21,19.74 -46.87,29.61 -83.11,29.61 -36.29,0 -63.96,-9.87 -83.15,-29.61 -25.67,-24.19 -38.53,-59.08 -38.53,-104.65 0,-46.46 12.86,-81.35 38.53,-104.66 19.2,-19.73 46.87,-29.6 83.15,-29.6 36.24,0 63.9,9.87 83.11,29.6 25.55,23.31 38.35,58.2 38.35,104.66zm225.11 -126.51l0 44.75 -76.11 0 0 208.96 -53.21 0 0 -208.96 -76.11 0 0 -44.75 205.44 0zm218.35 44.75l-134.2 0 0 54.27 123.22 0 0 44.05 -123.22 0 0 65.19 140.43 0 0 45.46 -192.22 0 0 -253.71 185.99 0 0 44.75zm46.58 -44.75l55.2 0 101.6 176.78 0 -176.78 48.98 0 0 253.71 -52.62 0 -104.19 -180.59 0 180.59 -48.97 0 0 -253.71zm244.26 129.02c0,-44.22 11.74,-78.34 35.17,-102.3 20.39,-20.85 46.29,-31.3 77.76,-31.3 42.17,0 72.95,13.98 92.44,41.93 10.75,15.68 16.56,31.42 17.32,47.23l-52.5 0c-3.35,-12.17 -7.69,-21.33 -12.99,-27.55 -9.45,-10.99 -23.43,-16.5 -41.93,-16.5 -18.91,0 -33.77,7.75 -44.69,23.31 -10.87,15.5 -16.33,37.53 -16.33,65.95 0,28.43 5.76,49.74 17.21,63.9 11.51,14.15 26.08,21.26 43.75,21.26 18.15,0 32.01,-6.04 41.52,-18.2 5.29,-6.52 9.64,-16.33 13.11,-29.37l52.5 0c-4.52,27.6 -16.09,50.09 -34.77,67.42 -18.62,17.32 -42.52,25.96 -71.65,25.96 -36.06,0 -64.37,-11.69 -84.98,-35.07 -20.62,-23.48 -30.94,-55.73 -30.94,-96.67zm313.67 124.69l-52.5 0 0 -253.71 52.5 0 0 253.71zm118.74 -95.85l64.85 0 -31.95 -99.84 -32.89 99.84zm3.59 -157.86l59.9 0 89.39 253.71 -57.43 0 -16.68 -52.15 -93.14 0 -17.21 52.15 -55.21 0 90.39 -253.71zm181.42 0l52.86 0 0 208.25 126.86 0 0 45.46 -179.71 0 0 -253.71z"/>
  <path class="fil9" d="M13354.51 3944.87l181.12 0 0 44.4 -128.62 0 0 58.49 112.76 0 0 43.69 -112.76 0 0 107.13 -52.5 0 0 -253.71zm327.89 216c21.15,0 37.88,-7.75 50.27,-23.25 12.4,-15.56 18.56,-37.65 18.56,-66.24 0,-28.55 -6.16,-50.57 -18.56,-66.13 -12.4,-15.56 -29.13,-23.37 -50.27,-23.37 -21.09,0 -37.88,7.75 -50.45,23.25 -12.57,15.56 -18.85,37.65 -18.85,66.25 0,28.6 6.28,50.68 18.85,66.24 12.58,15.5 29.37,23.25 50.45,23.25zm121.33 -89.5c0,45.57 -12.8,80.46 -38.35,104.65 -19.21,19.74 -46.87,29.61 -83.11,29.61 -36.29,0 -63.96,-9.87 -83.15,-29.61 -25.67,-24.19 -38.53,-59.08 -38.53,-104.65 0,-46.46 12.86,-81.35 38.53,-104.66 19.2,-19.73 46.87,-29.6 83.15,-29.6 36.24,0 63.9,9.87 83.11,29.6 25.55,23.31 38.35,58.2 38.35,104.66zm93.67 -82.82l0 68.36 57.08 0c11.34,0 19.8,-1.41 25.49,-4.17 10.04,-4.81 15.03,-14.33 15.03,-28.61 0,-15.44 -4.87,-25.78 -14.56,-31.12 -5.46,-3 -13.62,-4.46 -24.49,-4.46l-58.55 0zm69.6 -43.69c17.32,0.35 30.65,2.53 39.99,6.51 9.33,4.06 17.26,9.93 23.78,17.74 5.34,6.4 9.63,13.5 12.75,21.27 3.11,7.81 4.69,16.67 4.69,26.66 0,12.04 -3.06,23.84 -9.1,35.47 -6.11,11.63 -16.15,19.86 -30.14,24.67 11.7,4.69 19.98,11.39 24.85,20.09 4.87,8.63 7.34,21.9 7.34,39.69l0 17.09c0,11.63 0.47,19.5 1.41,23.61 1.41,6.57 4.69,11.39 9.86,14.5l0 6.4 -58.66 0c-1.65,-5.63 -2.83,-10.16 -3.53,-13.62 -1.41,-7.11 -2.18,-14.44 -2.29,-21.9l-0.36 -23.67c-0.23,-16.2 -3,-27.01 -8.4,-32.41 -5.34,-5.4 -15.38,-8.11 -30.13,-8.11l-51.68 0 0 99.73 -51.8 0 0 -253.71 121.4 0zm316.32 0l0 44.75 -76.11 0 0 208.96 -53.21 0 0 -208.96 -76.11 0 0 -44.75 205.44 0zm218.35 44.75l-134.2 0 0 54.27 123.22 0 0 44.05 -123.22 0 0 65.19 140.43 0 0 45.46 -192.22 0 0 -253.71 185.99 0 0 44.75zm-1095.72 418.97l0 166.33 49.16 0c25.19,0 42.69,-12.4 52.62,-37.18 5.46,-13.62 8.16,-29.78 8.16,-48.57 0,-25.96 -4.06,-45.87 -12.22,-59.72 -8.1,-13.92 -24.31,-20.86 -48.56,-20.86l-49.16 0zm58.2 -43.69c15.74,0.23 28.9,2.06 39.36,5.52 17.85,5.81 32.29,16.56 43.34,32.18 8.87,12.63 14.91,26.25 18.15,40.93 3.23,14.68 4.81,28.72 4.81,42.05 0,33.7 -6.81,62.25 -20.39,85.68 -18.38,31.53 -46.87,47.34 -85.27,47.34l-109.64 0 0 -253.71 109.64 0zm332.94 44.75l-134.2 0 0 54.27 123.22 0 0 44.05 -123.22 0 0 65.19 140.43 0 0 45.46 -192.22 0 0 -253.71 185.99 0 0 44.75zm85.33 130.38c1.65,11.57 4.87,20.21 9.63,25.96 8.81,10.4 23.85,15.62 45.17,15.62 12.75,0 23.13,-1.35 31.06,-4.12 15.09,-5.28 22.67,-15.09 22.67,-29.42 0,-8.4 -3.71,-14.86 -11.16,-19.45 -7.46,-4.46 -19.21,-8.45 -35.24,-11.92l-27.37 -5.99c-26.96,-5.99 -45.4,-12.51 -55.44,-19.5 -16.98,-11.69 -25.49,-30.02 -25.49,-54.91 0,-22.73 8.34,-41.58 25.01,-56.62 16.68,-15.04 41.23,-22.55 73.6,-22.55 26.95,0 50.03,7.04 69.06,21.2 19.09,14.15 29.08,34.71 30.02,61.61l-51.1 0c-0.94,-15.21 -7.75,-26.02 -20.38,-32.42 -8.4,-4.23 -18.91,-6.34 -31.41,-6.34 -13.92,0 -25.02,2.77 -33.36,8.23 -8.28,5.51 -12.46,13.21 -12.46,23.01 0,9.11 4.12,15.86 12.28,20.33 5.28,2.94 16.5,6.46 33.65,10.51l44.4 10.52c19.44,4.57 34.07,10.75 43.82,18.44 15.09,11.98 22.66,29.25 22.66,51.86 0,23.25 -8.93,42.52 -26.84,57.84 -17.91,15.33 -43.16,23.02 -75.82,23.02 -33.35,0 -59.6,-7.57 -78.69,-22.67 -19.09,-15.09 -28.67,-35.82 -28.67,-62.25l50.39 0zm384.73 -130.38l-134.2 0 0 54.27 123.22 0 0 44.05 -123.22 0 0 65.19 140.43 0 0 45.46 -192.22 0 0 -253.71 185.99 0 0 44.75zm215.83 -44.75l75.99 0 0 253.71 -48.98 0 0 -171.6c0,-4.93 0.06,-11.87 0.18,-20.74 0.12,-8.93 0.18,-15.74 0.18,-20.56l-48.27 212.9 -51.8 0 -47.93 -212.9c0,4.81 0.06,11.63 0.18,20.56 0.11,8.87 0.17,15.8 0.17,20.74l0 171.6 -48.97 0 0 -253.71 76.81 0 46.4 199.5 46.05 -199.5zm264.87 80.52c0,-13.27 -3.35,-22.73 -10.04,-28.37 -6.75,-5.63 -16.15,-8.46 -28.19,-8.46l-47.75 0 0 75.06 47.75 0c12.04,0 21.44,-3.06 28.19,-9.17 6.69,-6.1 10.04,-15.79 10.04,-29.07zm52.51 -0.18c0,29.96 -7.4,51.15 -22.25,63.55 -14.8,12.4 -36.01,18.56 -63.49,18.56l-52.74 0 0 91.27 -52.51 0 0 -253.71 108.72 0c25.07,0 45.04,6.51 59.9,19.62 14.91,13.1 22.37,33.29 22.37,60.72zm230.39 -35.59l-134.2 0 0 54.27 123.22 0 0 44.05 -123.22 0 0 65.19 140.43 0 0 45.46 -192.22 0 0 -253.71 185.99 0 0 44.75zm46.58 -44.75l55.2 0 101.6 176.78 0 -176.78 48.98 0 0 253.71 -52.62 0 -104.19 -180.59 0 180.59 -48.97 0 0 -253.71zm255.18 253.71l0 -253.71 52.51 0 0 96.9 99.02 0 0 -96.9 52.5 0 0 253.71 -52.5 0 0 -113.11 -99.02 0 0 113.11 -52.51 0zm366.77 -37.71c21.15,0 37.88,-7.75 50.27,-23.25 12.4,-15.56 18.56,-37.65 18.56,-66.24 0,-28.55 -6.16,-50.57 -18.56,-66.13 -12.4,-15.56 -29.13,-23.37 -50.27,-23.37 -21.09,0 -37.88,7.75 -50.45,23.25 -12.57,15.56 -18.85,37.65 -18.85,66.25 0,28.6 6.28,50.68 18.85,66.24 12.58,15.5 29.37,23.25 50.45,23.25zm121.33 -89.5c0,45.57 -12.8,80.46 -38.35,104.65 -19.21,19.74 -46.87,29.61 -83.11,29.61 -36.29,0 -63.96,-9.87 -83.15,-29.61 -25.67,-24.19 -38.53,-59.08 -38.53,-104.65 0,-46.46 12.86,-81.35 38.53,-104.66 19.2,-19.73 46.87,-29.6 83.15,-29.6 36.24,0 63.9,9.87 83.11,29.6 25.55,23.31 38.35,58.2 38.35,104.66z"/>
  <path class="fil9" d="M9192.93 3944.87l75.99 0 0 253.71 -48.98 0 0 -171.6c0,-4.93 0.06,-11.87 0.18,-20.74 0.12,-8.93 0.18,-15.74 0.18,-20.56l-48.27 212.9 -51.8 0 -47.93 -212.9c0,4.81 0.06,11.63 0.18,20.56 0.11,8.87 0.17,15.8 0.17,20.74l0 171.6 -48.97 0 0 -253.71 76.81 0 46.4 199.5 46.05 -199.5zm194.1 157.86l64.85 0 -31.95 -99.84 -32.89 99.84zm3.59 -157.86l59.9 0 89.39 253.71 -57.43 0 -16.68 -52.15 -93.14 0 -17.21 52.15 -55.21 0 90.39 -253.71zm181.07 0l55.2 0 101.6 176.78 0 -176.78 48.98 0 0 253.71 -52.62 0 -104.19 -180.59 0 180.59 -48.97 0 0 -253.71zm439.83 0l0 44.75 -76.11 0 0 208.96 -53.21 0 0 -208.96 -76.11 0 0 -44.75 205.44 0zm218.35 44.75l-134.2 0 0 54.27 123.22 0 0 44.05 -123.22 0 0 65.19 140.43 0 0 45.46 -192.22 0 0 -253.71 185.99 0 0 44.75zm46.58 -44.75l55.2 0 101.6 176.78 0 -176.78 48.98 0 0 253.71 -52.62 0 -104.19 -180.59 0 180.59 -48.97 0 0 -253.71zm442.93 44.75l-134.2 0 0 54.27 123.22 0 0 44.05 -123.22 0 0 65.19 140.43 0 0 45.46 -192.22 0 0 -253.71 185.99 0 0 44.75zm98.37 -1.06l0 166.33 49.16 0c25.19,0 42.69,-12.4 52.62,-37.18 5.46,-13.62 8.16,-29.78 8.16,-48.57 0,-25.96 -4.06,-45.87 -12.22,-59.72 -8.1,-13.92 -24.31,-20.86 -48.56,-20.86l-49.16 0zm58.2 -43.69c15.74,0.23 28.9,2.06 39.36,5.52 17.85,5.81 32.29,16.56 43.34,32.18 8.87,12.63 14.91,26.25 18.15,40.93 3.23,14.68 4.81,28.72 4.81,42.05 0,33.7 -6.81,62.25 -20.39,85.68 -18.38,31.53 -46.87,47.34 -85.27,47.34l-109.64 0 0 -253.71 109.64 0zm257.48 216c21.15,0 37.88,-7.75 50.27,-23.25 12.4,-15.56 18.56,-37.65 18.56,-66.24 0,-28.55 -6.16,-50.57 -18.56,-66.13 -12.4,-15.56 -29.13,-23.37 -50.27,-23.37 -21.09,0 -37.88,7.75 -50.45,23.25 -12.57,15.56 -18.85,37.65 -18.85,66.25 0,28.6 6.28,50.68 18.85,66.24 12.58,15.5 29.37,23.25 50.45,23.25zm121.33 -89.5c0,45.57 -12.8,80.46 -38.35,104.65 -19.21,19.74 -46.87,29.61 -83.11,29.61 -36.29,0 -63.96,-9.87 -83.15,-29.61 -25.67,-24.19 -38.53,-59.08 -38.53,-104.65 0,-46.46 12.86,-81.35 38.53,-104.66 19.2,-19.73 46.87,-29.6 83.15,-29.6 36.24,0 63.9,9.87 83.11,29.6 25.55,23.31 38.35,58.2 38.35,104.66zm93.67 -82.82l0 68.36 57.08 0c11.34,0 19.8,-1.41 25.49,-4.17 10.04,-4.81 15.03,-14.33 15.03,-28.61 0,-15.44 -4.87,-25.78 -14.56,-31.12 -5.46,-3 -13.62,-4.46 -24.49,-4.46l-58.55 0zm69.6 -43.69c17.32,0.35 30.65,2.53 39.99,6.51 9.33,4.06 17.26,9.93 23.78,17.74 5.34,6.4 9.63,13.5 12.75,21.27 3.11,7.81 4.69,16.67 4.69,26.66 0,12.04 -3.06,23.84 -9.1,35.47 -6.11,11.63 -16.15,19.86 -30.14,24.67 11.7,4.69 19.98,11.39 24.85,20.09 4.87,8.63 7.34,21.9 7.34,39.69l0 17.09c0,11.63 0.47,19.5 1.41,23.61 1.41,6.57 4.69,11.39 9.86,14.5l0 6.4 -58.66 0c-1.65,-5.63 -2.83,-10.16 -3.53,-13.62 -1.41,-7.11 -2.18,-14.44 -2.29,-21.9l-0.36 -23.67c-0.23,-16.2 -3,-27.01 -8.4,-32.41 -5.34,-5.4 -15.38,-8.11 -30.13,-8.11l-51.68 0 0 99.73 -51.8 0 0 -253.71 121.4 0z"/>
  <path class="fil9" d="M4839.72 4225.13c6.11,0 11.99,-0.76 17.62,-2.23 3.12,-0.82 7.1,-2.24 11.93,-4.29l-25.73 -24.55 27.31 -28.37 25.84 24.49c4.12,-8.28 6.93,-15.56 8.58,-21.8 2.53,-9.27 3.82,-20.2 3.82,-32.59 0,-28.6 -5.87,-50.68 -17.56,-66.24 -11.69,-15.62 -28.78,-23.43 -51.27,-23.43 -21.09,0 -37.88,7.46 -50.45,22.43 -12.57,14.91 -18.85,37.3 -18.85,67.07 0,34.82 8.99,59.78 26.96,74.81 11.63,9.81 25.6,14.68 41.81,14.68zm121.86 -93.26c0,22.61 -2.7,41.58 -8.16,56.86 -4.46,14.68 -11.04,26.84 -19.73,36.53l28.72 27.13 -27.31 28.96 -30.25 -28.9c-9.34,5.58 -17.39,9.52 -24.14,11.81 -11.4,3.76 -25.02,5.64 -40.87,5.64 -33.12,0 -60.49,-9.87 -82.11,-29.61 -26.19,-23.78 -39.29,-58.67 -39.29,-104.65 0,-46.34 13.44,-81.41 40.28,-105.19 21.9,-19.38 49.15,-29.07 81.7,-29.07 32.82,0 60.37,10.28 82.63,30.83 25.67,23.72 38.53,56.96 38.53,99.66zm40.46 -122.74l53.92 0 0 155.81c0,17.44 2.05,30.13 6.16,38.17 6.46,14.21 20.44,21.33 42.05,21.33 21.44,0 35.35,-7.11 41.81,-21.33 4.12,-8.04 6.17,-20.73 6.17,-38.17l0 -155.81 53.91 0 0 155.81c0,26.95 -4.17,47.92 -12.57,62.96 -15.62,27.54 -45.4,41.28 -89.33,41.28 -43.99,0 -73.83,-13.74 -89.57,-41.28 -8.39,-15.04 -12.57,-36.01 -12.57,-62.96l0 -155.81zm442.23 44.75l-134.2 0 0 54.27 123.22 0 0 44.05 -123.22 0 0 65.19 140.43 0 0 45.46 -192.22 0 0 -253.71 185.99 0 0 44.75zm85.33 130.38c1.65,11.57 4.87,20.21 9.63,25.96 8.81,10.4 23.85,15.62 45.17,15.62 12.75,0 23.13,-1.35 31.06,-4.12 15.09,-5.28 22.67,-15.09 22.67,-29.42 0,-8.4 -3.71,-14.86 -11.16,-19.45 -7.46,-4.46 -19.21,-8.45 -35.24,-11.92l-27.37 -5.99c-26.96,-5.99 -45.4,-12.51 -55.44,-19.5 -16.98,-11.69 -25.49,-30.02 -25.49,-54.91 0,-22.73 8.34,-41.58 25.01,-56.62 16.68,-15.04 41.23,-22.55 73.6,-22.55 26.95,0 50.03,7.04 69.06,21.2 19.09,14.15 29.08,34.71 30.02,61.61l-51.1 0c-0.94,-15.21 -7.75,-26.02 -20.38,-32.42 -8.4,-4.23 -18.91,-6.34 -31.41,-6.34 -13.92,0 -25.02,2.77 -33.36,8.23 -8.28,5.51 -12.46,13.21 -12.46,23.01 0,9.11 4.12,15.86 12.28,20.33 5.28,2.94 16.5,6.46 33.65,10.51l44.4 10.52c19.44,4.57 34.07,10.75 43.82,18.44 15.09,11.98 22.66,29.25 22.66,51.86 0,23.25 -8.93,42.52 -26.84,57.84 -17.91,15.33 -43.16,23.02 -75.82,23.02 -33.35,0 -59.6,-7.57 -78.69,-22.67 -19.09,-15.09 -28.67,-35.82 -28.67,-62.25l50.39 0zm381.62 -175.13l0 44.75 -76.11 0 0 208.96 -53.21 0 0 -208.96 -76.11 0 0 -44.75 205.44 0zm78.87 253.71l-52.5 0 0 -253.71 52.5 0 0 253.71zm161.91 -37.71c21.15,0 37.88,-7.75 50.27,-23.25 12.4,-15.56 18.56,-37.65 18.56,-66.24 0,-28.55 -6.16,-50.57 -18.56,-66.13 -12.4,-15.56 -29.13,-23.37 -50.27,-23.37 -21.09,0 -37.88,7.75 -50.45,23.25 -12.57,15.56 -18.85,37.65 -18.85,66.25 0,28.6 6.28,50.68 18.85,66.24 12.58,15.5 29.37,23.25 50.45,23.25zm121.33 -89.5c0,45.57 -12.8,80.46 -38.35,104.65 -19.21,19.74 -46.87,29.61 -83.11,29.61 -36.29,0 -63.96,-9.87 -83.15,-29.61 -25.67,-24.19 -38.53,-59.08 -38.53,-104.65 0,-46.46 12.86,-81.35 38.53,-104.66 19.2,-19.73 46.87,-29.6 83.15,-29.6 36.24,0 63.9,9.87 83.11,29.6 25.55,23.31 38.35,58.2 38.35,104.66zm39.76 -126.51l55.2 0 101.6 176.78 0 -176.78 48.98 0 0 253.71 -52.62 0 -104.19 -180.59 0 180.59 -48.97 0 0 -253.71zm324.3 157.86l64.85 0 -31.95 -99.84 -32.89 99.84zm3.59 -157.86l59.9 0 89.39 253.71 -57.43 0 -16.68 -52.15 -93.14 0 -17.21 52.15 -55.21 0 90.39 -253.71zm88.33 -72.01l-52.27 51.45 -35.47 0 33.06 -51.45 54.68 0zm241.85 72.01l54.68 0 -86.45 253.71 -49.68 0 -85.8 -253.71 56.62 0 55.09 192.63 55.56 -192.63zm274.38 44.75l-134.2 0 0 54.27 123.22 0 0 44.05 -123.22 0 0 65.19 140.43 0 0 45.46 -192.22 0 0 -253.71 185.99 0 0 44.75zm46.93 -44.75l52.86 0 0 208.25 126.86 0 0 45.46 -179.71 0 0 -253.71z"/>
  <path class="fil9" d="M4770.95 8023.64l-52.5 0 0 -253.71 52.5 0 0 253.71zm48.92 -253.71l55.2 0 101.6 176.78 0 -176.78 48.98 0 0 253.71 -52.62 0 -104.19 -180.59 0 180.59 -48.97 0 0 -253.71zm293.23 175.13c1.65,11.57 4.87,20.21 9.63,25.96 8.81,10.4 23.85,15.62 45.17,15.62 12.75,0 23.13,-1.35 31.06,-4.12 15.09,-5.28 22.67,-15.09 22.67,-29.42 0,-8.4 -3.71,-14.86 -11.16,-19.45 -7.46,-4.46 -19.21,-8.45 -35.24,-11.92l-27.37 -5.99c-26.96,-5.99 -45.4,-12.51 -55.44,-19.5 -16.98,-11.69 -25.49,-30.02 -25.49,-54.91 0,-22.73 8.34,-41.58 25.01,-56.62 16.68,-15.04 41.23,-22.55 73.6,-22.55 26.95,0 50.03,7.04 69.06,21.2 19.09,14.15 29.08,34.71 30.02,61.61l-51.1 0c-0.94,-15.21 -7.75,-26.02 -20.38,-32.42 -8.4,-4.23 -18.91,-6.34 -31.41,-6.34 -13.92,0 -25.02,2.77 -33.36,8.23 -8.28,5.51 -12.46,13.21 -12.46,23.01 0,9.11 4.12,15.86 12.28,20.33 5.28,2.94 16.5,6.46 33.65,10.51l44.4 10.52c19.44,4.57 34.07,10.75 43.82,18.44 15.09,11.98 22.66,29.25 22.66,51.86 0,23.25 -8.93,42.52 -26.84,57.84 -17.91,15.33 -43.16,23.02 -75.82,23.02 -33.35,0 -59.6,-7.57 -78.69,-22.67 -19.09,-15.09 -28.67,-35.82 -28.67,-62.25l50.39 0zm196.97 -175.13l53.92 0 0 155.81c0,17.44 2.05,30.13 6.16,38.17 6.46,14.21 20.44,21.33 42.05,21.33 21.44,0 35.35,-7.11 41.81,-21.33 4.12,-8.04 6.17,-20.73 6.17,-38.17l0 -155.81 53.91 0 0 155.81c0,26.95 -4.17,47.92 -12.57,62.96 -15.62,27.54 -45.4,41.28 -89.33,41.28 -43.99,0 -73.83,-13.74 -89.57,-41.28 -8.39,-15.04 -12.57,-36.01 -12.57,-62.96l0 -155.81zm254.13 0l181.12 0 0 44.4 -128.62 0 0 58.49 112.76 0 0 43.69 -112.76 0 0 107.13 -52.5 0 0 -253.71zm263.87 253.71l-52.5 0 0 -253.71 52.5 0 0 253.71zm38.71 -124.69c0,-44.22 11.74,-78.34 35.17,-102.3 20.39,-20.85 46.29,-31.3 77.76,-31.3 42.17,0 72.95,13.98 92.44,41.93 10.75,15.68 16.56,31.42 17.32,47.23l-52.5 0c-3.35,-12.17 -7.69,-21.33 -12.99,-27.55 -9.45,-10.99 -23.43,-16.5 -41.93,-16.5 -18.91,0 -33.77,7.75 -44.69,23.31 -10.87,15.5 -16.33,37.53 -16.33,65.95 0,28.43 5.76,49.74 17.21,63.9 11.51,14.15 26.08,21.26 43.75,21.26 18.15,0 32.01,-6.04 41.52,-18.2 5.29,-6.52 9.64,-16.33 13.11,-29.37l52.5 0c-4.52,27.6 -16.09,50.09 -34.77,67.42 -18.62,17.32 -42.52,25.96 -71.65,25.96 -36.06,0 -64.37,-11.69 -84.98,-35.07 -20.62,-23.48 -30.94,-55.73 -30.94,-96.67zm313.67 124.69l-52.5 0 0 -253.71 52.5 0 0 253.71zm237.38 -208.96l-134.2 0 0 54.27 123.22 0 0 44.05 -123.22 0 0 65.19 140.43 0 0 45.46 -192.22 0 0 -253.71 185.99 0 0 44.75zm46.58 -44.75l55.2 0 101.6 176.78 0 -176.78 48.98 0 0 253.71 -52.62 0 -104.19 -180.59 0 180.59 -48.97 0 0 -253.71zm439.83 0l0 44.75 -76.11 0 0 208.96 -53.21 0 0 -208.96 -76.11 0 0 -44.75 205.44 0zm218.35 44.75l-134.2 0 0 54.27 123.22 0 0 44.05 -123.22 0 0 65.19 140.43 0 0 45.46 -192.22 0 0 -253.71 185.99 0 0 44.75z"/>
  <path class="fil9" d="M9209.66 7811.51l-134.2 0 0 54.27 123.22 0 0 44.05 -123.22 0 0 65.19 140.43 0 0 45.46 -192.22 0 0 -253.71 185.99 0 0 44.75zm46.93 -44.75l181.12 0 0 44.4 -128.62 0 0 58.49 112.76 0 0 43.69 -112.76 0 0 107.13 -52.5 0 0 -253.71zm263.87 253.71l-52.5 0 0 -253.71 52.5 0 0 253.71zm38.71 -124.69c0,-44.22 11.74,-78.34 35.17,-102.3 20.39,-20.85 46.29,-31.3 77.76,-31.3 42.17,0 72.95,13.98 92.44,41.93 10.75,15.68 16.56,31.42 17.32,47.23l-52.5 0c-3.35,-12.17 -7.69,-21.33 -12.99,-27.55 -9.45,-10.99 -23.43,-16.5 -41.93,-16.5 -18.91,0 -33.77,7.75 -44.69,23.31 -10.87,15.5 -16.33,37.53 -16.33,65.95 0,28.43 5.76,49.74 17.21,63.9 11.51,14.15 26.08,21.26 43.75,21.26 18.15,0 32.01,-6.04 41.52,-18.2 5.29,-6.52 9.64,-16.33 13.11,-29.37l52.5 0c-4.52,27.6 -16.09,50.09 -34.77,67.42 -18.62,17.32 -42.52,25.96 -71.65,25.96 -36.06,0 -64.37,-11.69 -84.98,-35.07 -20.62,-23.48 -30.94,-55.73 -30.94,-96.67zm334.52 28.84l64.85 0 -31.95 -99.84 -32.89 99.84zm3.59 -157.86l59.9 0 89.39 253.71 -57.43 0 -16.68 -52.15 -93.14 0 -17.21 52.15 -55.21 0 90.39 -253.71zm163.8 208.96l129.55 -164.21 -126.39 0 0 -44.75 192.4 0 0 42.34 -131.43 166.62 131.79 0 0 44.75 -195.93 0 0 -44.75z"/>
  <path class="fil9" d="M13354.51 7898.95c0,-44.22 11.74,-78.34 35.17,-102.3 20.39,-20.85 46.29,-31.3 77.76,-31.3 42.17,0 72.95,13.98 92.44,41.93 10.75,15.68 16.56,31.42 17.32,47.23l-52.5 0c-3.35,-12.17 -7.69,-21.33 -12.99,-27.55 -9.45,-10.99 -23.43,-16.5 -41.93,-16.5 -18.91,0 -33.77,7.75 -44.69,23.31 -10.87,15.5 -16.33,37.53 -16.33,65.95 0,28.43 5.76,49.74 17.21,63.9 11.51,14.15 26.08,21.26 43.75,21.26 18.15,0 32.01,-6.04 41.52,-18.2 5.29,-6.52 9.64,-16.33 13.11,-29.37l52.5 0c-4.52,27.6 -16.09,50.09 -34.77,67.42 -18.62,17.32 -42.52,25.96 -71.65,25.96 -36.06,0 -64.37,-11.69 -84.98,-35.07 -20.62,-23.48 -30.94,-55.73 -30.94,-96.67zm377.69 86.98c21.15,0 37.88,-7.75 50.27,-23.25 12.4,-15.56 18.56,-37.65 18.56,-66.24 0,-28.55 -6.16,-50.57 -18.56,-66.13 -12.4,-15.56 -29.13,-23.37 -50.27,-23.37 -21.09,0 -37.88,7.75 -50.45,23.25 -12.57,15.56 -18.85,37.65 -18.85,66.25 0,28.6 6.28,50.68 18.85,66.24 12.58,15.5 29.37,23.25 50.45,23.25zm121.33 -89.5c0,45.57 -12.8,80.46 -38.35,104.65 -19.21,19.74 -46.87,29.61 -83.11,29.61 -36.29,0 -63.96,-9.87 -83.15,-29.61 -25.67,-24.19 -38.53,-59.08 -38.53,-104.65 0,-46.46 12.86,-81.35 38.53,-104.66 19.2,-19.73 46.87,-29.6 83.15,-29.6 36.24,0 63.9,9.87 83.11,29.6 25.55,23.31 38.35,58.2 38.35,104.66zm209.02 -126.51l75.99 0 0 253.71 -48.98 0 0 -171.6c0,-4.93 0.06,-11.87 0.18,-20.74 0.12,-8.93 0.18,-15.74 0.18,-20.56l-48.27 212.9 -51.8 0 -47.93 -212.9c0,4.81 0.06,11.63 0.18,20.56 0.11,8.87 0.17,15.8 0.17,20.74l0 171.6 -48.97 0 0 -253.71 76.81 0 46.4 199.5 46.05 -199.5zm264.87 80.52c0,-13.27 -3.35,-22.73 -10.04,-28.37 -6.75,-5.63 -16.15,-8.46 -28.19,-8.46l-47.75 0 0 75.06 47.75 0c12.04,0 21.44,-3.06 28.19,-9.17 6.69,-6.1 10.04,-15.79 10.04,-29.07zm52.51 -0.18c0,29.96 -7.4,51.15 -22.25,63.55 -14.8,12.4 -36.01,18.56 -63.49,18.56l-52.74 0 0 91.27 -52.51 0 0 -253.71 108.72 0c25.07,0 45.04,6.51 59.9,19.62 14.91,13.1 22.37,33.29 22.37,60.72zm95.84 -36.65l0 68.36 57.08 0c11.34,0 19.8,-1.41 25.49,-4.17 10.04,-4.81 15.03,-14.33 15.03,-28.61 0,-15.44 -4.87,-25.78 -14.56,-31.12 -5.46,-3 -13.62,-4.46 -24.49,-4.46l-58.55 0zm69.6 -43.69c17.32,0.35 30.65,2.53 39.99,6.51 9.33,4.06 17.26,9.93 23.78,17.74 5.34,6.4 9.63,13.5 12.75,21.27 3.11,7.81 4.69,16.67 4.69,26.66 0,12.04 -3.06,23.84 -9.1,35.47 -6.11,11.63 -16.15,19.86 -30.14,24.67 11.7,4.69 19.98,11.39 24.85,20.09 4.87,8.63 7.34,21.9 7.34,39.69l0 17.09c0,11.63 0.47,19.5 1.41,23.61 1.41,6.57 4.69,11.39 9.86,14.5l0 6.4 -58.66 0c-1.65,-5.63 -2.83,-10.16 -3.53,-13.62 -1.41,-7.11 -2.18,-14.44 -2.29,-21.9l-0.36 -23.67c-0.23,-16.2 -3,-27.01 -8.4,-32.41 -5.34,-5.4 -15.38,-8.11 -30.13,-8.11l-51.68 0 0 99.73 -51.8 0 0 -253.71 121.4 0zm243.96 216c21.15,0 37.88,-7.75 50.27,-23.25 12.4,-15.56 18.56,-37.65 18.56,-66.24 0,-28.55 -6.16,-50.57 -18.56,-66.13 -12.4,-15.56 -29.13,-23.37 -50.27,-23.37 -21.09,0 -37.88,7.75 -50.45,23.25 -12.57,15.56 -18.85,37.65 -18.85,66.25 0,28.6 6.28,50.68 18.85,66.24 12.58,15.5 29.37,23.25 50.45,23.25zm121.33 -89.5c0,45.57 -12.8,80.46 -38.35,104.65 -19.21,19.74 -46.87,29.61 -83.11,29.61 -36.29,0 -63.96,-9.87 -83.15,-29.61 -25.67,-24.19 -38.53,-59.08 -38.53,-104.65 0,-46.46 12.86,-81.35 38.53,-104.66 19.2,-19.73 46.87,-29.6 83.15,-29.6 36.24,0 63.9,9.87 83.11,29.6 25.55,23.31 38.35,58.2 38.35,104.66zm209.02 -126.51l75.99 0 0 253.71 -48.98 0 0 -171.6c0,-4.93 0.06,-11.87 0.18,-20.74 0.12,-8.93 0.18,-15.74 0.18,-20.56l-48.27 212.9 -51.8 0 -47.93 -212.9c0,4.81 0.06,11.63 0.18,20.56 0.11,8.87 0.17,15.8 0.17,20.74l0 171.6 -48.97 0 0 -253.71 76.81 0 46.4 199.5 46.05 -199.5zm312.73 44.75l-134.2 0 0 54.27 123.22 0 0 44.05 -123.22 0 0 65.19 140.43 0 0 45.46 -192.22 0 0 -253.71 185.99 0 0 44.75zm231.92 -44.75l0 44.75 -76.11 0 0 208.96 -53.21 0 0 -208.96 -76.11 0 0 -44.75 205.44 0zm78.87 253.71l-52.5 0 0 -253.71 52.5 0 0 253.71zm100.71 -210.02l0 166.33 49.16 0c25.19,0 42.69,-12.4 52.62,-37.18 5.46,-13.62 8.16,-29.78 8.16,-48.57 0,-25.96 -4.06,-45.87 -12.22,-59.72 -8.1,-13.92 -24.31,-20.86 -48.56,-20.86l-49.16 0zm58.2 -43.69c15.74,0.23 28.9,2.06 39.36,5.52 17.85,5.81 32.29,16.56 43.34,32.18 8.87,12.63 14.91,26.25 18.15,40.93 3.23,14.68 4.81,28.72 4.81,42.05 0,33.7 -6.81,62.25 -20.39,85.68 -18.38,31.53 -46.87,47.34 -85.27,47.34l-109.64 0 0 -253.71 109.64 0zm257.48 216c21.15,0 37.88,-7.75 50.27,-23.25 12.4,-15.56 18.56,-37.65 18.56,-66.24 0,-28.55 -6.16,-50.57 -18.56,-66.13 -12.4,-15.56 -29.13,-23.37 -50.27,-23.37 -21.09,0 -37.88,7.75 -50.45,23.25 -12.57,15.56 -18.85,37.65 -18.85,66.25 0,28.6 6.28,50.68 18.85,66.24 12.58,15.5 29.37,23.25 50.45,23.25zm121.33 -89.5c0,45.57 -12.8,80.46 -38.35,104.65 -19.21,19.74 -46.87,29.61 -83.11,29.61 -36.29,0 -63.96,-9.87 -83.15,-29.61 -25.67,-24.19 -38.53,-59.08 -38.53,-104.65 0,-46.46 12.86,-81.35 38.53,-104.66 19.2,-19.73 46.87,-29.6 83.15,-29.6 36.24,0 63.9,9.87 83.11,29.6 25.55,23.31 38.35,58.2 38.35,104.66z"/>
 </g>
</svg>
